<svg width="182" height="52" viewBox="0 0 182 52" fill="none" xmlns="http://www.w3.org/2000/svg">
<path d="M2.23371 50.5126C1.12917 50.5046 0.24018 49.6028 0.248099 48.4983L0.377213 30.4987C0.385133 29.3942 1.28696 28.5052 2.3915 28.5131C3.49604 28.521 4.38502 29.4229 4.37711 30.5274L4.26234 46.527L20.2619 46.6418C21.3665 46.6497 22.2555 47.5515 22.2475 48.6561C22.2396 49.7606 21.3378 50.6496 20.2332 50.6417L2.23371 50.5126ZM178.378 51.5583C162.687 29.8139 138.81 9.91557 109.112 5.13202C79.5169 0.364973 43.6276 10.5308 3.65209 49.9369L0.844017 47.0883C41.4482 7.06246 78.5533 -3.8418 109.748 1.18292C140.841 6.19114 165.55 26.9464 181.622 49.2175L178.378 51.5583Z" fill="black"/>
</svg>
