<svg width="182" height="52" viewBox="0 0 182 52" fill="none" xmlns="http://www.w3.org/2000/svg">
<path d="M179.766 50.5126C180.871 50.5046 181.76 49.6028 181.752 48.4983L181.623 30.4987C181.615 29.3942 180.713 28.5052 179.608 28.5131C178.504 28.521 177.615 29.4229 177.623 30.5274L177.738 46.527L161.738 46.6418C160.634 46.6497 159.745 47.5515 159.752 48.6561C159.76 49.7606 160.662 50.6496 161.767 50.6417L179.766 50.5126ZM3.62187 51.5583C19.3134 29.8139 43.1902 9.91557 72.8879 5.13202C102.483 0.364973 138.372 10.5308 178.348 49.9369L181.156 47.0883C140.552 7.06246 103.447 -3.8418 72.2518 1.18292C41.1592 6.19114 16.4499 26.9464 0.378251 49.2175L3.62187 51.5583Z" fill="black"/>
</svg>
