<svg width="56" height="40" viewBox="0 0 56 40" fill="none" xmlns="http://www.w3.org/2000/svg">
<path d="M3.93631 0.255646L2.69802 1.19832C1.10047 2.41444 0.447998 3.70828 0.447998 5.66195C0.447998 7.73822 1.54716 9.6738 3.16041 10.4392L4.39607 11.0262L4.60355 15.4018C4.97354 23.2075 6.77684 27.6112 11.5709 32.4188C15.3345 36.1931 19.493 38.355 24.5223 39.1518C26.9899 39.5427 31.6688 39.2194 34.2621 38.4792C38.2033 37.3543 41.1412 35.58 44.3226 32.4031C46.6361 30.0928 47.5055 28.9313 48.6191 26.6615C50.4775 22.8735 51.0115 20.6151 51.2649 15.4668C51.4765 11.1698 51.4798 11.1551 52.4249 10.6673C56.3309 8.65136 56.5882 3.677 52.9274 0.94916C52.0072 0.262841 51.7103 0.255646 27.9665 0.255646H3.93631ZM4.68918 3.95801H27.9329H51.1767L51.6753 4.84482C52.1227 5.64041 52.1147 5.8222 51.5963 6.61188L51.0179 7.49213H27.9329H4.84792L4.26961 6.61188C3.75117 5.8222 3.74313 5.64041 4.19057 4.84482L4.68918 3.95801ZM8.20449 11.1945H27.9329H47.6614V14.6747C47.6614 21.1405 45.8709 25.772 41.7702 29.9122C39.1125 32.5955 36.0945 34.3148 32.4639 35.2153C23.8099 37.3613 14.377 32.9255 10.3728 24.826C8.88769 21.822 8.21871 18.6174 8.21107 14.4762L8.20449 11.1945ZM28.1015 14.4525C21.7175 14.4925 17.3947 20.1442 19.1469 26.1599C19.8943 28.7256 22.5001 31.4368 24.9366 32.1835C28.6495 33.3213 32.068 32.4556 34.6217 29.7308C37.3365 26.8341 37.887 22.9224 36.0774 19.3822C34.4424 16.1837 31.6054 14.4306 28.1015 14.4525ZM27.5733 17.959C28.4459 17.9258 29.36 18.1287 30.3272 18.5671C32.4268 19.5188 33.3287 21.013 33.3287 23.5389C33.3287 25.7727 32.8035 26.8321 31.0458 28.1419C29.9139 28.9853 26.9641 29.2194 25.5723 28.5764C21.5863 26.7348 21.2978 21.1413 25.0664 18.7669C25.869 18.2612 26.7007 17.9922 27.5733 17.959ZM28.2293 20.7233C27.7631 20.6757 27.2721 20.7403 26.7901 20.9396C24.9947 21.6818 24.514 24.1367 25.8944 25.5143C27.6788 27.2954 30.7994 26.0505 30.7994 23.5579C30.7994 22.016 29.6281 20.8658 28.2293 20.7233Z" fill="#000"/>
</svg>
