<?xml version="1.0" encoding="UTF-8" standalone="no"?>
<!-- Created with Inkscape (http://www.inkscape.org/) -->

<svg
   width="13.23143mm"
   height="15.562836mm"
   viewBox="0 0 13.23143 15.562836"
   version="1.1"
   
   id="svg5"
   xml:space="preserve"
   inkscape:export-filename="doorlock.svg"
   inkscape:export-xdpi="96"
   inkscape:export-ydpi="96"
   xmlns:inkscape="http://www.inkscape.org/namespaces/inkscape"
   xmlns:sodipodi="http://sodipodi.sourceforge.net/DTD/sodipodi-0.dtd"
   xmlns="http://www.w3.org/2000/svg"
   xmlns:svg="http://www.w3.org/2000/svg"><sodipodi:namedview
     id="namedview7"
     pagecolor="#505050"
     bordercolor="#eeeeee"
     borderopacity="1"
     inkscape:showpageshadow="0"
     inkscape:pageopacity="0"
     inkscape:pagecheckerboard="0"
     inkscape:deskcolor="#505050"
     inkscape:document-units="mm"
     showgrid="false" /><defs
     id="defs2" /><g
     inkscape:label="Layer 1"
     inkscape:groupmode="layer"
     id="layer1"
     transform="translate(-209.99909,-89.512662)"><path
       style="fill:#000000;stroke-width:0.0100404"
       d="m 213.33982,105.0602 c -0.004,-0.0111 -0.0218,-0.0151 -0.0663,-0.0151 -0.0471,0 -0.0606,-0.003 -0.0606,-0.0151 0,-0.0105 -0.0106,-0.0151 -0.0351,-0.0151 -0.0245,0 -0.0351,-0.005 -0.0351,-0.0151 0,-0.0101 -0.0101,-0.0151 -0.0304,-0.0151 -0.0172,0 -0.0328,-0.006 -0.036,-0.0144 -0.003,-0.008 -0.0187,-0.0173 -0.0348,-0.0209 -0.0161,-0.004 -0.0293,-0.0129 -0.0293,-0.0207 0,-0.008 -0.007,-0.0143 -0.0151,-0.0143 -0.008,0 -0.0151,-0.007 -0.0151,-0.0151 0,-0.01 -0.01,-0.0151 -0.0301,-0.0151 -0.0201,0 -0.0301,-0.005 -0.0301,-0.0151 0,-0.008 -0.007,-0.0151 -0.016,-0.0151 -0.009,0 -0.0184,-0.009 -0.0213,-0.0201 -0.003,-0.011 -0.0115,-0.0201 -0.0191,-0.0201 -0.008,0 -0.0139,-0.007 -0.0139,-0.0151 0,-0.008 -0.007,-0.0151 -0.0151,-0.0151 -0.008,0 -0.0151,-0.007 -0.0151,-0.0151 0,-0.008 -0.007,-0.0151 -0.0151,-0.0151 -0.008,0 -0.0151,-0.007 -0.0151,-0.0154 0,-0.008 -0.007,-0.0179 -0.0145,-0.0209 -0.008,-0.003 -0.0173,-0.0187 -0.0209,-0.0348 -0.004,-0.0161 -0.0129,-0.0293 -0.0207,-0.0293 -0.009,0 -0.0143,-0.0108 -0.0143,-0.0301 0,-0.0201 -0.005,-0.0301 -0.0151,-0.0301 -0.008,0 -0.0151,-0.009 -0.0151,-0.0194 0,-0.0106 -0.006,-0.0254 -0.0134,-0.0327 -0.007,-0.007 -0.0168,-0.0268 -0.0209,-0.0433 -0.004,-0.0165 -0.0124,-0.0329 -0.0184,-0.0366 -0.006,-0.004 -0.013,-0.0331 -0.0156,-0.0654 -0.003,-0.0323 -0.01,-0.0619 -0.016,-0.0658 -0.008,-0.005 -0.0119,-1.59904 -0.0137,-5.98659 l -0.003,-5.979422 h 0.26107 0.26108 v 5.953955 c 0,5.285707 0.002,5.953957 0.0151,5.953957 0.0112,0 0.0151,0.0117 0.0151,0.0452 0,0.0335 0.004,0.0452 0.0151,0.0452 0.008,0 0.0151,0.007 0.0151,0.0154 0,0.008 0.007,0.018 0.0151,0.0212 0.008,0.003 0.0151,0.0121 0.0151,0.0198 0,0.008 0.007,0.014 0.0151,0.014 0.008,0 0.0151,0.007 0.0151,0.0151 0,0.008 0.009,0.0151 0.0201,0.0151 0.0112,0 0.0201,0.007 0.0201,0.0151 0,0.008 0.007,0.0151 0.0151,0.0151 0.008,0 0.0151,0.006 0.0151,0.0138 0,0.009 0.0174,0.0161 0.0494,0.0203 0.0272,0.004 0.0513,0.0121 0.0536,0.0189 0.003,0.01 0.60593,0.0123 2.81876,0.0123 2.21283,0 2.81554,-0.003 2.81876,-0.0123 0.002,-0.007 0.0263,-0.0153 0.0536,-0.0189 0.032,-0.004 0.0494,-0.0114 0.0494,-0.0203 0,-0.008 0.007,-0.0138 0.0151,-0.0138 0.008,0 0.0151,-0.007 0.0151,-0.0151 0,-0.008 0.009,-0.0151 0.0201,-0.0151 0.011,0 0.0203,-0.006 0.0205,-0.0126 2.4e-4,-0.007 0.0138,-0.0236 0.0301,-0.0372 0.0163,-0.0135 0.0297,-0.0305 0.0297,-0.0376 0,-0.007 0.007,-0.013 0.0151,-0.013 0.0112,0 0.0151,-0.0117 0.0151,-0.0452 0,-0.0335 0.004,-0.0452 0.0151,-0.0452 0.0133,0 0.0151,-0.12049 0.0151,-1.02412 v -1.02412 h 0.26123 0.26123 l -0.003,1.04959 c -0.002,0.74937 -0.006,1.05163 -0.0137,1.05675 -0.006,0.004 -0.0137,0.0339 -0.017,0.0665 -0.003,0.0326 -0.0104,0.062 -0.0158,0.0654 -0.005,0.003 -0.0132,0.0195 -0.0173,0.036 -0.004,0.0165 -0.0135,0.0359 -0.0209,0.0433 -0.007,0.007 -0.0134,0.0221 -0.0134,0.0327 0,0.0106 -0.007,0.0194 -0.0151,0.0194 -0.01,0 -0.0151,0.01 -0.0151,0.0301 0,0.0193 -0.005,0.0301 -0.0143,0.0301 -0.008,0 -0.0171,0.0132 -0.0207,0.0293 -0.004,0.0161 -0.0129,0.0318 -0.0209,0.0348 -0.008,0.003 -0.0144,0.0125 -0.0144,0.0209 0,0.008 -0.007,0.0154 -0.0151,0.0154 -0.008,0 -0.0151,0.007 -0.0151,0.0151 0,0.008 -0.007,0.0151 -0.0151,0.0151 -0.008,0 -0.0151,0.007 -0.0151,0.0151 0,0.008 -0.007,0.0151 -0.0151,0.0151 -0.008,0 -0.0151,0.007 -0.0151,0.016 0,0.009 -0.009,0.0184 -0.0201,0.0213 -0.011,0.003 -0.0201,0.0115 -0.0201,0.0191 0,0.008 -0.007,0.0139 -0.0151,0.0139 -0.008,0 -0.0151,0.007 -0.0151,0.0151 0,0.01 -0.01,0.0151 -0.0301,0.0151 -0.0193,0 -0.0301,0.005 -0.0301,0.0143 0,0.008 -0.0132,0.0171 -0.0293,0.0207 -0.0161,0.004 -0.0318,0.0129 -0.0348,0.0209 -0.003,0.008 -0.0188,0.0144 -0.036,0.0144 -0.0204,0 -0.0304,0.005 -0.0304,0.0151 0,0.0105 -0.0106,0.0151 -0.0351,0.0151 -0.0245,0 -0.0351,0.005 -0.0351,0.0151 0,0.0117 -0.0134,0.0151 -0.0606,0.0151 -0.0446,0 -0.0621,0.004 -0.0663,0.0151 -0.005,0.0133 -0.33498,0.0151 -2.88522,0.0151 -2.55025,0 -2.88011,-0.002 -2.88523,-0.0151 z m 0.74662,-1.03416 c 0,-0.0112 -0.0118,-0.0151 -0.0455,-0.0151 -0.0303,0 -0.0474,-0.005 -0.0511,-0.0144 -0.003,-0.008 -0.0183,-0.0173 -0.034,-0.0207 -0.0156,-0.003 -0.0309,-0.0128 -0.034,-0.0207 -0.003,-0.008 -0.017,-0.0144 -0.031,-0.0144 -0.0159,0 -0.0254,-0.006 -0.0254,-0.0151 0,-0.008 -0.009,-0.0151 -0.0201,-0.0151 -0.0112,0 -0.0201,-0.007 -0.0201,-0.0151 0,-0.008 -0.007,-0.0151 -0.0151,-0.0151 -0.008,0 -0.0151,-0.006 -0.0151,-0.0128 0,-0.007 -0.0133,-0.0245 -0.0296,-0.0388 -0.0163,-0.0143 -0.0326,-0.0379 -0.0362,-0.0524 -0.004,-0.0146 -0.0129,-0.0265 -0.0206,-0.0265 -0.009,0 -0.014,-0.0118 -0.014,-0.0351 0,-0.023 -0.005,-0.0351 -0.0137,-0.0351 -0.009,0 -0.0159,-0.016 -0.0194,-0.0425 -0.003,-0.0234 -0.0105,-0.0441 -0.0164,-0.046 -0.0151,-0.005 -0.0151,-12.589396 0,-12.594435 0.006,-0.002 0.0132,-0.02267 0.0164,-0.04602 0.004,-0.02645 0.0109,-0.04246 0.0194,-0.04246 0.009,0 0.0137,-0.0121 0.0137,-0.03514 0,-0.02333 0.005,-0.03514 0.014,-0.03514 0.008,0 0.017,-0.01192 0.0206,-0.02648 0.004,-0.01456 0.02,-0.03816 0.0362,-0.05244 0.0163,-0.01428 0.0296,-0.03173 0.0296,-0.03878 0,-0.0071 0.007,-0.01282 0.0151,-0.01282 0.008,0 0.0151,-0.0068 0.0151,-0.01506 0,-0.0084 0.009,-0.01506 0.0201,-0.01506 0.0112,0 0.0201,-0.0067 0.0201,-0.01506 0,-0.0094 0.01,-0.01506 0.0254,-0.01506 0.014,0 0.0279,-0.0065 0.031,-0.01445 0.003,-0.0079 0.0183,-0.01726 0.034,-0.0207 0.0156,-0.0034 0.0309,-0.01275 0.034,-0.02069 0.004,-0.0096 0.0207,-0.01445 0.0511,-0.01445 0.0337,0 0.0455,-0.0039 0.0455,-0.01506 0,-0.01334 0.24432,-0.01506 2.13861,-0.01506 1.89429,0 2.1386,0.0017 2.1386,0.01506 0,0.01138 0.0123,0.01506 0.0502,0.01506 0.0367,0 0.0502,0.0038 0.0502,0.01426 0,0.0078 0.0132,0.01716 0.0293,0.02069 0.0161,0.0035 0.0318,0.01293 0.0348,0.02088 0.003,0.0079 0.017,0.01445 0.031,0.01445 0.0159,0 0.0254,0.0056 0.0254,0.01506 0,0.0084 0.009,0.01506 0.0201,0.01506 0.0112,0 0.0201,0.0067 0.0201,0.01506 0,0.0083 0.007,0.01506 0.0151,0.01506 0.008,0 0.0151,0.0058 0.0151,0.01282 0,0.0071 0.0133,0.02451 0.0296,0.03878 0.0163,0.01428 0.0326,0.03788 0.0362,0.05244 0.004,0.01456 0.0129,0.02648 0.0206,0.02648 0.009,0 0.014,0.01181 0.014,0.03514 0,0.02304 0.005,0.03514 0.0137,0.03514 0.009,0 0.0159,0.016 0.0194,0.04246 0.003,0.02335 0.0105,0.04406 0.0164,0.04602 0.008,0.0025 0.0107,1.124004 0.0107,3.797995 v 3.794433 h -0.25603 -0.25603 v -3.745067 c 0,-3.322256 -0.002,-3.745068 -0.0151,-3.745068 -0.008,0 -0.0151,-0.0068 -0.0151,-0.01506 0,-0.01334 -0.23427,-0.01506 -2.04824,-0.01506 -1.81396,0 -2.04824,0.0017 -2.04824,0.01506 0,0.0083 -0.007,0.01506 -0.0151,0.01506 -0.0134,0 -0.0151,0.435642 -0.0151,3.860532 0,3.85384 3e-5,3.860532 0.0201,3.860532 0.0112,0 0.0201,-0.0067 0.0201,-0.01506 0,-0.0083 0.007,-0.01506 0.0151,-0.01506 0.008,0 0.0151,-0.0089 0.0151,-0.02008 0,-0.01116 0.007,-0.02008 0.0151,-0.02008 0.008,0 0.0151,-0.0068 0.0151,-0.01506 0,-0.0083 0.007,-0.01506 0.0151,-0.01506 0.008,0 0.0151,-0.0068 0.0151,-0.01506 0,-0.0083 0.007,-0.01506 0.0151,-0.01506 0.008,0 0.0151,-0.0058 0.0151,-0.01283 0,-0.0071 0.009,-0.02057 0.0201,-0.03002 0.0111,-0.0095 0.0201,-0.02402 0.0201,-0.03235 0,-0.0083 0.007,-0.01516 0.0151,-0.01516 0.008,0 0.0151,-0.0089 0.0151,-0.02008 0,-0.01562 0.007,-0.02008 0.0301,-0.02008 0.0166,0 0.0301,-0.005 0.0301,-0.01122 0,-0.0146 0.0746,-0.08918 0.0892,-0.08918 0.006,0 0.0112,-0.0068 0.0112,-0.01506 0,-0.0083 0.007,-0.01506 0.0151,-0.01506 0.008,0 0.0151,-0.0068 0.0151,-0.01506 0,-0.0084 0.009,-0.01506 0.0201,-0.01506 0.0112,0 0.0201,-0.0067 0.0201,-0.01506 0,-0.0083 0.007,-0.01506 0.0151,-0.01506 0.008,0 0.0151,-0.0064 0.0151,-0.01426 0,-0.0078 0.0136,-0.01724 0.0301,-0.02088 0.0166,-0.0036 0.0301,-0.01304 0.0301,-0.02088 0,-0.0078 0.009,-0.01426 0.0201,-0.01426 0.0112,0 0.0201,-0.0067 0.0201,-0.01506 0,-0.01004 0.01,-0.01506 0.0301,-0.01506 0.0201,0 0.0301,-0.005 0.0301,-0.01506 0,-0.0083 0.007,-0.01506 0.0151,-0.01506 0.008,0 0.0151,-0.0064 0.0151,-0.01426 0,-0.0078 0.0132,-0.01716 0.0293,-0.02069 0.0161,-0.0035 0.0318,-0.01293 0.0348,-0.02088 0.003,-0.0082 0.0188,-0.01445 0.036,-0.01445 0.0204,0 0.0304,-0.005 0.0304,-0.01506 0,-0.0084 0.009,-0.01506 0.0201,-0.01506 0.0111,0 0.0201,-0.0067 0.0201,-0.01506 0,-0.01004 0.01,-0.01506 0.0301,-0.01506 0.019,0 0.0301,-0.0051 0.0301,-0.01397 0,-0.0077 0.0124,-0.01708 0.0275,-0.02088 0.0151,-0.0038 0.0304,-0.01156 0.0339,-0.01724 0.004,-0.0057 0.0273,-0.01269 0.0528,-0.01557 0.0301,-0.0034 0.0464,-0.01008 0.0464,-0.01899 0,-0.0086 0.0113,-0.01375 0.0301,-0.01375 0.0201,0 0.0301,-0.005 0.0301,-0.01506 0,-0.01138 0.0123,-0.01506 0.0502,-0.01506 0.0358,0 0.0502,-0.0039 0.0502,-0.01377 0,-0.0089 0.0174,-0.01608 0.0494,-0.02033 0.0272,-0.0036 0.051,-0.01126 0.0529,-0.017 0.002,-0.0057 0.0237,-0.01315 0.0483,-0.01645 0.0247,-0.0033 0.0508,-0.01205 0.0582,-0.01943 0.008,-0.0084 0.0375,-0.01342 0.078,-0.01342 0.0489,0 0.0645,-0.0034 0.0645,-0.01417 0,-0.01116 0.0239,-0.0149 0.11213,-0.01757 0.0782,-0.0024 0.11339,-0.0072 0.1163,-0.01595 0.006,-0.01821 0.52104,-0.01821 0.5271,0 0.003,0.0088 0.038,0.01358 0.1163,0.01595 0.0883,0.0027 0.11213,0.0064 0.11213,0.01757 0,0.01073 0.0157,0.01417 0.0645,0.01417 0.0405,0 0.0696,0.005 0.078,0.01342 0.007,0.0074 0.0332,0.01608 0.0574,0.01932 0.0242,0.0032 0.0468,0.01055 0.0503,0.01623 0.004,0.0057 0.0266,0.01349 0.0513,0.01735 0.0247,0.0039 0.0477,0.01135 0.0512,0.01663 0.003,0.0053 0.0272,0.01196 0.0527,0.01484 0.0301,0.0034 0.0464,0.01008 0.0464,0.01899 0,0.0085 0.0112,0.01376 0.0296,0.01376 0.0163,0 0.0332,0.0061 0.0377,0.01354 0.004,0.0074 0.0257,0.01632 0.0474,0.01972 0.0216,0.0034 0.042,0.0105 0.0453,0.01579 0.003,0.0053 0.0183,0.01271 0.0334,0.0165 0.0151,0.0038 0.0275,0.01319 0.0275,0.02088 0,0.0088 0.0111,0.01397 0.0301,0.01397 0.0201,0 0.0301,0.005 0.0301,0.01506 0,0.01051 0.0106,0.01506 0.0351,0.01506 0.0245,0 0.0351,0.0045 0.0351,0.01506 0,0.0083 0.007,0.01506 0.0154,0.01506 0.008,0 0.0179,0.0065 0.0209,0.01445 0.003,0.0079 0.0187,0.01734 0.0348,0.02088 0.0161,0.0035 0.0293,0.01285 0.0293,0.02069 0,0.0078 0.006,0.01426 0.014,0.01426 0.008,0 0.0166,0.0068 0.0198,0.01506 0.003,0.0088 0.0184,0.01506 0.0362,0.01506 0.0204,0 0.0304,0.005 0.0304,0.01506 0,0.0083 0.007,0.01506 0.0151,0.01506 0.008,0 0.0151,0.0064 0.0151,0.01426 0,0.0078 0.0135,0.01724 0.0301,0.02088 0.0166,0.0036 0.0301,0.01303 0.0301,0.02088 0,0.0078 0.007,0.01426 0.0151,0.01426 0.008,0 0.0151,0.0068 0.0151,0.01506 0,0.0084 0.009,0.01506 0.0201,0.01506 0.0112,0 0.0201,0.0067 0.0201,0.01506 0,0.0083 0.007,0.01506 0.0151,0.01506 0.008,0 0.0151,0.0068 0.0151,0.01506 0,0.0083 0.006,0.01506 0.0128,0.01506 0.007,0 0.0206,0.009 0.03,0.02008 0.009,0.01105 0.024,0.02008 0.0324,0.02008 0.008,0 0.0152,0.0068 0.0152,0.01506 0,0.0083 0.007,0.01506 0.0151,0.01506 0.008,0 0.0151,0.0068 0.0151,0.01506 0,0.0084 0.009,0.01506 0.0201,0.01506 0.0134,0 0.0201,0.0067 0.0201,0.02008 0,0.01116 0.007,0.02008 0.0151,0.02008 0.008,0 0.0151,0.0068 0.0151,0.01506 0,0.0083 0.006,0.01506 0.0143,0.01506 0.008,0 0.0172,0.01356 0.0209,0.03012 0.004,0.01657 0.013,0.03012 0.0209,0.03012 0.008,0 0.0143,0.0068 0.0143,0.01506 0,0.0083 0.007,0.01506 0.0151,0.01506 0.008,0 0.0151,0.0068 0.0151,0.01506 0,0.0083 0.007,0.01506 0.0151,0.01506 0.008,0 0.0151,0.0089 0.0151,0.02008 0,0.01116 0.007,0.02008 0.0151,0.02008 0.008,0 0.0151,0.0068 0.0151,0.01506 0,0.0083 0.006,0.01506 0.0143,0.01506 0.008,0 0.0172,0.01355 0.0209,0.03012 0.004,0.01657 0.013,0.03012 0.0209,0.03012 0.008,0 0.0143,0.009 0.0143,0.02008 0,0.01105 0.006,0.02008 0.0143,0.02008 0.008,0 0.0172,0.01355 0.0209,0.03012 0.004,0.01657 0.013,0.03012 0.0209,0.03012 0.008,0 0.0143,0.0068 0.0143,0.01506 0,0.0083 0.004,0.01506 0.009,0.01506 0.005,0 0.0121,0.01318 0.0157,0.02928 0.004,0.01611 0.0129,0.03178 0.0209,0.03483 0.008,0.0031 0.0144,0.01246 0.0144,0.02092 0,0.01376 0.21152,0.01538 2.00808,0.01538 1.77826,0 2.00808,0.0017 2.00808,0.01506 0,0.01185 0.0139,0.01506 0.0653,0.01506 0.0513,0 0.0653,0.0032 0.0653,0.01506 0,0.01051 0.0106,0.01506 0.0351,0.01506 0.0237,0 0.0351,0.0047 0.0351,0.01426 0,0.0079 0.0144,0.01742 0.0321,0.0213 0.0176,0.0039 0.0383,0.01327 0.0459,0.02088 0.008,0.0076 0.0226,0.01384 0.0332,0.01384 0.0106,0 0.0194,0.0068 0.0194,0.01506 0,0.01004 0.01,0.01506 0.0301,0.01506 0.0201,0 0.0301,0.005 0.0301,0.01506 0,0.0083 0.006,0.01506 0.0139,0.01506 0.008,0 0.0163,0.009 0.0191,0.02008 0.003,0.01105 0.0125,0.02008 0.0213,0.02008 0.009,0 0.016,0.0068 0.016,0.01506 0,0.0083 0.007,0.01506 0.0151,0.01506 0.008,0 0.0151,0.0068 0.0151,0.01506 0,0.0083 0.007,0.01506 0.0151,0.01506 0.008,0 0.0151,0.0068 0.0151,0.01506 0,0.0083 0.007,0.01506 0.0151,0.01506 0.008,0 0.0151,0.0089 0.0151,0.02008 0,0.01105 0.006,0.02008 0.0143,0.02008 0.008,0 0.0172,0.01355 0.0209,0.03012 0.004,0.01657 0.013,0.03012 0.0209,0.03012 0.009,0 0.0143,0.01079 0.0143,0.03012 0,0.01901 0.005,0.03012 0.0139,0.03012 0.008,0 0.0168,0.01501 0.0205,0.03514 0.004,0.01933 0.0105,0.03514 0.0154,0.03514 0.005,0 0.0118,0.01355 0.0154,0.03012 0.004,0.01657 0.0102,0.03012 0.0146,0.03012 0.004,0 0.0111,0.02819 0.015,0.06264 0.004,0.03445 0.0124,0.06591 0.0189,0.06992 0.0169,0.01047 0.0169,1.089918 0,1.100398 -0.006,0.004 -0.015,0.0355 -0.0189,0.0699 -0.004,0.0345 -0.0107,0.0626 -0.015,0.0626 -0.004,0 -0.0111,0.0144 -0.015,0.0321 -0.004,0.0176 -0.0133,0.0383 -0.0209,0.0459 -0.008,0.008 -0.0138,0.0225 -0.0138,0.0332 0,0.0106 -0.007,0.0194 -0.0151,0.0194 -0.01,0 -0.0151,0.01 -0.0151,0.0301 0,0.0201 -0.005,0.0301 -0.0151,0.0301 -0.008,0 -0.0151,0.009 -0.0151,0.0202 0,0.0111 -0.009,0.0279 -0.0201,0.0374 -0.011,0.009 -0.0201,0.023 -0.0201,0.03 0,0.007 -0.007,0.0128 -0.0151,0.0128 -0.008,0 -0.0151,0.007 -0.0151,0.0151 0,0.008 -0.007,0.0151 -0.0151,0.0151 -0.008,0 -0.0151,0.007 -0.0151,0.0151 0,0.008 -0.006,0.0151 -0.0139,0.0151 -0.008,0 -0.0163,0.009 -0.0191,0.0201 -0.003,0.0111 -0.0125,0.0201 -0.0213,0.0201 -0.009,0 -0.016,0.007 -0.016,0.0151 0,0.008 -0.007,0.0151 -0.0151,0.0151 -0.008,0 -0.0151,0.007 -0.0151,0.0151 0,0.01 -0.01,0.0151 -0.0301,0.0151 -0.0201,0 -0.0301,0.005 -0.0301,0.0151 0,0.008 -0.009,0.0151 -0.0202,0.0151 -0.0111,0 -0.0279,0.009 -0.0374,0.0201 -0.01,0.0111 -0.0296,0.0201 -0.0451,0.0201 -0.0181,0 -0.0279,0.005 -0.0279,0.0151 0,0.0105 -0.0106,0.0151 -0.0351,0.0151 -0.0245,0 -0.0351,0.005 -0.0351,0.0151 0,0.0117 -0.0134,0.0151 -0.0606,0.0151 -0.0446,0 -0.0621,0.004 -0.0663,0.0151 -0.005,0.0131 -0.074,0.0151 -0.53685,0.0151 h -0.53107 v -0.25575 -0.25576 l 0.49868,-0.003 c 0.38267,-0.002 0.49963,-0.006 0.50278,-0.0151 0.002,-0.007 0.0263,-0.0152 0.0535,-0.0189 0.032,-0.004 0.0494,-0.0114 0.0494,-0.0203 0,-0.008 0.007,-0.0138 0.0151,-0.0138 0.008,0 0.0151,-0.007 0.0151,-0.0151 0,-0.008 0.009,-0.0151 0.0201,-0.0151 0.011,0 0.0203,-0.006 0.0205,-0.0126 2.3e-4,-0.007 0.0138,-0.0236 0.0301,-0.0372 0.0163,-0.0135 0.0297,-0.0305 0.0297,-0.0376 0,-0.007 0.007,-0.013 0.0151,-0.013 0.0112,0 0.0151,-0.0117 0.0151,-0.0452 0,-0.0335 0.004,-0.0452 0.0151,-0.0452 0.0132,0 0.0151,-0.0614 0.0151,-0.49198 0,-0.430628 -0.002,-0.491985 -0.0151,-0.491985 -0.0112,0 -0.0151,-0.01171 -0.0151,-0.04518 0,-0.03347 -0.004,-0.04518 -0.0151,-0.04518 -0.008,0 -0.0151,-0.0051 -0.0151,-0.01122 0,-0.0146 -0.0746,-0.08918 -0.0892,-0.08918 -0.006,0 -0.0112,-0.0068 -0.0112,-0.01506 0,-0.0083 -0.007,-0.01506 -0.0151,-0.01506 -0.008,0 -0.0151,-0.0062 -0.0151,-0.01376 0,-0.0089 -0.0165,-0.01562 -0.0474,-0.01909 -0.026,-0.0029 -0.049,-0.0103 -0.051,-0.01637 -0.003,-0.008 -0.92559,-0.01102 -3.34019,-0.01102 -2.95654,0 -3.33718,0.0017 -3.3423,0.01506 -0.004,0.01032 -0.0201,0.01506 -0.0513,0.01506 -0.0337,0 -0.0455,0.0039 -0.0455,0.01506 0,0.01051 -0.0106,0.01506 -0.0351,0.01506 -0.0245,0 -0.0351,0.0045 -0.0351,0.01506 0,0.01004 -0.01,0.01506 -0.0301,0.01506 -0.0201,0 -0.0301,0.005 -0.0301,0.01506 0,0.0083 -0.006,0.01506 -0.0128,0.01506 -0.007,0 -0.0206,0.009 -0.03,0.02008 -0.009,0.01105 -0.024,0.02008 -0.0323,0.02008 -0.008,0 -0.0152,0.0068 -0.0152,0.01506 0,0.0084 -0.009,0.01506 -0.0201,0.01506 -0.0134,0 -0.0201,0.0067 -0.0201,0.02008 0,0.01116 -0.007,0.02008 -0.0151,0.02008 -0.008,0 -0.0151,0.0068 -0.0151,0.01516 0,0.0083 -0.009,0.0229 -0.0201,0.03235 -0.011,0.0095 -0.0201,0.02297 -0.0201,0.03002 0,0.0071 -0.007,0.01283 -0.0151,0.01283 -0.01,0 -0.0151,0.01004 -0.0151,0.03012 0,0.02008 -0.005,0.03012 -0.0151,0.03012 -0.0105,0 -0.0151,0.0106 -0.0151,0.0351 0,0.0245 -0.005,0.0351 -0.0151,0.0351 -0.0112,0 -0.0151,0.0118 -0.0151,0.0455 0,0.0312 -0.005,0.0473 -0.0151,0.0513 -0.0128,0.005 -0.0151,0.04 -0.0151,0.23062 0,0.19316 0.002,0.22483 0.0151,0.22483 0.0112,0 0.0151,0.0117 0.0151,0.0452 0,0.0335 0.004,0.0452 0.0151,0.0452 0.0105,0 0.0151,0.0106 0.0151,0.0351 0,0.0245 0.005,0.0351 0.0151,0.0351 0.008,0 0.0151,0.009 0.0151,0.0194 0,0.0106 0.007,0.0261 0.0151,0.0344 0.008,0.008 0.0151,0.0189 0.0151,0.0236 0,0.005 0.009,0.0163 0.0201,0.0257 0.0111,0.009 0.0201,0.0263 0.0201,0.0374 0,0.0112 0.007,0.0202 0.0151,0.0202 0.008,0 0.0151,0.007 0.0151,0.0151 0,0.008 0.006,0.0151 0.0128,0.0151 0.007,0 0.0206,0.009 0.03,0.0201 0.009,0.011 0.0235,0.0201 0.0313,0.0201 0.008,0 0.0167,0.007 0.0199,0.0151 0.003,0.008 0.0127,0.0151 0.0212,0.0151 0.008,0 0.0154,0.007 0.0154,0.0151 0,0.01 0.01,0.0151 0.0301,0.0151 0.019,0 0.0301,0.005 0.0301,0.0139 0,0.008 0.015,0.0168 0.0351,0.0205 0.0193,0.004 0.0351,0.0103 0.0351,0.0149 0,0.005 0.0223,0.0112 0.0495,0.0149 0.0272,0.004 0.0513,0.0121 0.0536,0.0189 0.003,0.01 0.55672,0.0129 2.57611,0.0149 l 2.57202,0.003 v 0.25591 0.25592 h -1.21489 c -1.20819,0 -1.21489,1.1e-4 -1.21489,0.0201 0,0.011 -0.006,0.0201 -0.0143,0.0201 -0.008,0 -0.0172,0.0135 -0.0209,0.0301 -0.004,0.0166 -0.0108,0.0301 -0.0159,0.0301 -0.005,0 -0.009,0.006 -0.009,0.0128 0,0.007 -0.009,0.0206 -0.0201,0.03 -0.011,0.009 -0.0201,0.0263 -0.0201,0.0374 0,0.0112 -0.007,0.0202 -0.0151,0.0202 -0.008,0 -0.0151,0.007 -0.0151,0.0151 0,0.008 -0.007,0.0151 -0.0151,0.0151 -0.008,0 -0.0151,0.009 -0.0151,0.0196 0,0.0108 -0.0158,0.035 -0.0351,0.0537 -0.0193,0.0188 -0.0351,0.0393 -0.0351,0.0457 0,0.006 -0.007,0.0115 -0.0151,0.0115 -0.008,0 -0.0151,0.007 -0.0151,0.0151 0,0.008 -0.007,0.0151 -0.0151,0.0151 -0.008,0 -0.0151,0.009 -0.0151,0.0201 0,0.0112 -0.007,0.0201 -0.0151,0.0201 -0.008,0 -0.0151,0.007 -0.0151,0.0151 0,0.008 -0.006,0.0151 -0.0143,0.0151 -0.008,0 -0.0172,0.0135 -0.0209,0.0301 -0.004,0.0166 -0.013,0.0301 -0.0209,0.0301 -0.008,0 -0.0143,0.007 -0.0143,0.0151 0,0.008 -0.006,0.0151 -0.0128,0.0151 -0.007,0 -0.0206,0.009 -0.03,0.0201 -0.009,0.011 -0.024,0.0201 -0.0324,0.0201 -0.008,0 -0.0152,0.007 -0.0152,0.0151 0,0.008 -0.007,0.0151 -0.0151,0.0151 -0.008,0 -0.0151,0.007 -0.0151,0.0151 0,0.008 -0.009,0.0151 -0.0201,0.0151 -0.0112,0 -0.0201,0.007 -0.0201,0.0151 0,0.008 -0.007,0.0151 -0.0151,0.0151 -0.008,0 -0.0151,0.007 -0.0151,0.0151 0,0.008 -0.006,0.0151 -0.0128,0.0151 -0.007,0 -0.0245,0.0133 -0.0388,0.0296 -0.0143,0.0163 -0.0379,0.0326 -0.0524,0.0362 -0.0146,0.004 -0.0265,0.0129 -0.0265,0.0206 0,0.008 -0.007,0.014 -0.0154,0.014 -0.008,0 -0.0179,0.007 -0.0209,0.0145 -0.003,0.008 -0.0187,0.0173 -0.0348,0.0209 -0.0161,0.004 -0.0293,0.0129 -0.0293,0.0207 0,0.008 -0.006,0.0143 -0.014,0.0143 -0.008,0 -0.0166,0.007 -0.0198,0.0151 -0.003,0.008 -0.0172,0.0151 -0.0312,0.0151 -0.0159,0 -0.0254,0.006 -0.0254,0.0151 0,0.008 -0.009,0.0151 -0.0201,0.0151 -0.0112,0 -0.0201,0.007 -0.0201,0.0151 0,0.0101 -0.0101,0.0151 -0.0304,0.0151 -0.0169,0 -0.0328,0.006 -0.0359,0.0142 -0.003,0.008 -0.0169,0.017 -0.031,0.0206 -0.0141,0.004 -0.0321,0.013 -0.0401,0.021 -0.008,0.008 -0.0233,0.0146 -0.0339,0.0146 -0.0106,0 -0.0194,0.007 -0.0194,0.0151 0,0.0112 -0.0117,0.0151 -0.0452,0.0151 -0.0335,0 -0.0452,0.004 -0.0452,0.0151 0,0.0105 -0.0106,0.0151 -0.0351,0.0151 -0.0231,0 -0.0351,0.005 -0.0351,0.0138 0,0.009 -0.0164,0.0156 -0.0464,0.019 -0.0255,0.003 -0.0498,0.0107 -0.054,0.0175 -0.004,0.007 -0.0284,0.0146 -0.054,0.0175 -0.0301,0.003 -0.0464,0.0101 -0.0464,0.019 0,0.01 -0.0144,0.0138 -0.0502,0.0138 -0.0379,0 -0.0502,0.004 -0.0502,0.0151 0,0.012 -0.0151,0.0151 -0.0753,0.0151 -0.0565,0 -0.0753,0.003 -0.0753,0.0136 0,0.0102 -0.0282,0.0153 -0.11255,0.0204 -0.071,0.004 -0.11534,0.0114 -0.12012,0.0191 -0.0105,0.017 -0.50847,0.0164 -0.519,-6e-4 -0.004,-0.007 -0.0524,-0.0144 -0.11974,-0.0184 -0.0844,-0.005 -0.11255,-0.0102 -0.11255,-0.0204 0,-0.0102 -0.0188,-0.0136 -0.0753,-0.0136 -0.0602,0 -0.0753,-0.003 -0.0753,-0.0151 0,-0.0114 -0.0123,-0.0151 -0.0502,-0.0151 -0.0358,0 -0.0502,-0.004 -0.0502,-0.0138 0,-0.009 -0.0163,-0.0156 -0.0464,-0.019 -0.0255,-0.003 -0.0498,-0.0107 -0.054,-0.0175 -0.004,-0.007 -0.0285,-0.0146 -0.054,-0.0175 -0.0301,-0.003 -0.0464,-0.0101 -0.0464,-0.019 0,-0.009 -0.0113,-0.0138 -0.0301,-0.0138 -0.0201,0 -0.0301,-0.005 -0.0301,-0.0151 0,-0.0114 -0.0123,-0.0151 -0.0502,-0.0151 -0.0367,0 -0.0502,-0.004 -0.0502,-0.0143 0,-0.008 -0.0136,-0.0172 -0.0301,-0.0209 -0.0166,-0.004 -0.0301,-0.0104 -0.0301,-0.0151 0,-0.005 -0.0132,-0.0113 -0.0293,-0.0149 -0.0161,-0.004 -0.0318,-0.0129 -0.0348,-0.0209 -0.003,-0.008 -0.0125,-0.0144 -0.0209,-0.0144 -0.008,0 -0.0154,-0.007 -0.0154,-0.0151 0,-0.0105 -0.0106,-0.0151 -0.0351,-0.0151 -0.0245,0 -0.0351,-0.005 -0.0351,-0.0151 0,-0.009 -0.01,-0.0151 -0.0254,-0.0151 -0.014,0 -0.028,-0.007 -0.0312,-0.0151 -0.003,-0.008 -0.0121,-0.0151 -0.0198,-0.0151 -0.008,0 -0.014,-0.006 -0.014,-0.0143 0,-0.008 -0.0132,-0.0172 -0.0293,-0.0207 -0.0161,-0.004 -0.0318,-0.0129 -0.0348,-0.0209 -0.003,-0.008 -0.0125,-0.0144 -0.0209,-0.0144 -0.008,0 -0.0154,-0.006 -0.0154,-0.014 0,-0.008 -0.0119,-0.017 -0.0265,-0.0206 -0.0146,-0.004 -0.0382,-0.02 -0.0524,-0.0362 -0.0143,-0.0163 -0.0317,-0.0296 -0.0388,-0.0296 -0.007,0 -0.0128,-0.007 -0.0128,-0.0151 0,-0.008 -0.007,-0.0151 -0.0151,-0.0151 -0.008,0 -0.0151,-0.007 -0.0151,-0.0151 0,-0.008 -0.009,-0.0151 -0.0201,-0.0151 -0.0112,0 -0.0201,-0.007 -0.0201,-0.0151 0,-0.008 -0.007,-0.0151 -0.0151,-0.0151 -0.008,0 -0.0151,-0.007 -0.0151,-0.0151 0,-0.008 -0.007,-0.0151 -0.0151,-0.0151 -0.008,0 -0.0151,-0.006 -0.0151,-0.0143 0,-0.008 -0.0136,-0.0172 -0.0301,-0.0209 -0.0166,-0.004 -0.0301,-0.013 -0.0301,-0.0209 0,-0.008 -0.006,-0.0143 -0.0143,-0.0143 -0.008,0 -0.0172,-0.0136 -0.0209,-0.0301 -0.004,-0.0166 -0.013,-0.0301 -0.0209,-0.0301 -0.008,0 -0.0143,-0.007 -0.0143,-0.0151 0,-0.008 -0.007,-0.0151 -0.0151,-0.0151 -0.008,0 -0.0151,-0.009 -0.0151,-0.0201 0,-0.0112 -0.007,-0.0201 -0.0151,-0.0201 -0.008,0 -0.0151,-0.007 -0.0151,-0.0151 0,-0.008 -0.007,-0.0151 -0.0151,-0.0151 -0.008,0 -0.0151,-0.007 -0.0151,-0.0154 0,-0.008 -0.007,-0.018 -0.0151,-0.0211 -0.008,-0.003 -0.0151,-0.0121 -0.0151,-0.0198 0,-0.008 -0.009,-0.014 -0.0201,-0.014 -0.0199,0 -0.0201,0.007 -0.0201,0.74801 0,0.6582 0.002,0.74801 0.0151,0.74801 0.008,0 0.0151,0.007 0.0151,0.0151 0,0.0133 0.23428,0.0151 2.04824,0.0151 1.81397,0 2.04825,-0.002 2.04825,-0.0151 0,-0.008 0.007,-0.0151 0.0151,-0.0151 0.0132,0 0.0151,-0.077 0.0151,-0.63255 v -0.63254 h 0.25603 0.25603 v 0.68274 c 0,0.6002 -0.002,0.68275 -0.0151,0.68275 -0.0112,0 -0.0151,0.0117 -0.0151,0.0452 0,0.0335 -0.004,0.0452 -0.0151,0.0452 -0.0105,0 -0.0151,0.0106 -0.0151,0.0352 0,0.0237 -0.005,0.0351 -0.0143,0.0351 -0.008,0 -0.0172,0.0136 -0.0209,0.0301 -0.004,0.0166 -0.013,0.0301 -0.0209,0.0301 -0.008,0 -0.0143,0.006 -0.0143,0.014 0,0.008 -0.007,0.0166 -0.0151,0.0198 -0.008,0.003 -0.0151,0.0127 -0.0151,0.0212 0,0.008 -0.007,0.0154 -0.0151,0.0154 -0.008,0 -0.0151,0.007 -0.0151,0.0151 0,0.008 -0.009,0.0151 -0.0201,0.0151 -0.0112,0 -0.0201,0.007 -0.0201,0.0151 0,0.009 -0.01,0.0151 -0.0254,0.0151 -0.014,0 -0.0279,0.006 -0.031,0.0144 -0.003,0.008 -0.0183,0.0173 -0.034,0.0207 -0.0156,0.003 -0.0309,0.0127 -0.034,0.0207 -0.004,0.01 -0.0207,0.0145 -0.051,0.0145 -0.0337,0 -0.0455,0.004 -0.0455,0.0151 0,0.0133 -0.24432,0.0151 -2.13861,0.0151 -1.89428,0 -2.1386,-0.002 -2.1386,-0.0151 z m 2.39966,-1.55526 c 0,-0.0108 0.0213,-0.0149 0.0907,-0.0176 0.0616,-0.002 0.0934,-0.008 0.099,-0.0169 0.005,-0.008 0.0348,-0.0158 0.0699,-0.019 0.0426,-0.004 0.0616,-0.01 0.0616,-0.0193 0,-0.01 0.0146,-0.0137 0.0502,-0.0137 0.0379,0 0.0502,-0.004 0.0502,-0.0151 0,-0.0112 0.0117,-0.0151 0.0452,-0.0151 0.0335,0 0.0452,-0.004 0.0452,-0.0151 0,-0.0105 0.0106,-0.0151 0.0351,-0.0151 0.0237,0 0.0351,-0.005 0.0351,-0.0143 0,-0.008 0.0144,-0.0174 0.0321,-0.0213 0.0176,-0.004 0.0383,-0.0133 0.0459,-0.0209 0.008,-0.008 0.0225,-0.0138 0.0332,-0.0138 0.0106,0 0.0194,-0.007 0.0194,-0.0151 0,-0.01 0.01,-0.0151 0.0301,-0.0151 0.019,0 0.0301,-0.005 0.0301,-0.0139 0,-0.008 0.015,-0.0168 0.0351,-0.0205 0.0193,-0.004 0.0351,-0.0109 0.0351,-0.0162 0,-0.005 0.007,-0.01 0.0151,-0.01 0.008,0 0.0151,-0.006 0.0151,-0.0143 0,-0.008 0.0136,-0.0172 0.0301,-0.0209 0.0166,-0.004 0.0301,-0.013 0.0301,-0.0209 0,-0.008 0.009,-0.0143 0.0201,-0.0143 0.0112,0 0.0201,-0.007 0.0201,-0.0151 0,-0.008 0.007,-0.0151 0.0151,-0.0151 0.008,0 0.0151,-0.007 0.0151,-0.0151 0,-0.008 0.009,-0.0151 0.0196,-0.0151 0.0108,0 0.035,-0.0158 0.0537,-0.0351 0.0188,-0.0193 0.0393,-0.0352 0.0457,-0.0352 0.006,0 0.0115,-0.007 0.0115,-0.0151 0,-0.008 0.007,-0.0151 0.0151,-0.0151 0.008,0 0.0151,-0.007 0.0151,-0.0151 0,-0.008 0.007,-0.0151 0.0151,-0.0151 0.008,0 0.0151,-0.006 0.0151,-0.0139 0,-0.008 0.009,-0.0162 0.0201,-0.0191 0.011,-0.003 0.0201,-0.0125 0.0201,-0.0213 0,-0.009 0.007,-0.016 0.0151,-0.016 0.008,0 0.0151,-0.007 0.0151,-0.0151 0,-0.008 0.007,-0.0151 0.0151,-0.0151 0.008,0 0.0151,-0.007 0.0151,-0.0151 0,-0.008 0.007,-0.0151 0.0151,-0.0151 0.008,0 0.0151,-0.007 0.0151,-0.0146 0,-0.008 0.008,-0.019 0.0175,-0.0243 0.01,-0.005 0.0138,-0.0135 0.009,-0.0181 -0.005,-0.005 -0.47869,-0.009 -1.05365,-0.0109 -0.80668,-0.002 -1.04709,-0.005 -1.0529,-0.0148 -0.004,-0.007 -0.0386,-0.0138 -0.0833,-0.016 -0.0562,-0.003 -0.0758,-0.007 -0.0758,-0.0178 0,-0.01 -0.0133,-0.014 -0.0455,-0.014 -0.0312,0 -0.0473,-0.005 -0.0513,-0.0151 -0.003,-0.008 -0.0155,-0.0151 -0.0273,-0.0152 -0.0373,-2.3e-4 -0.0667,-0.0117 -0.0667,-0.0261 0,-0.009 -0.011,-0.0139 -0.0291,-0.0139 -0.0166,0 -0.0315,-0.006 -0.0348,-0.0151 -0.003,-0.008 -0.0127,-0.0151 -0.0212,-0.0151 -0.008,0 -0.0154,-0.007 -0.0154,-0.0151 0,-0.01 -0.01,-0.0151 -0.0301,-0.0151 -0.0201,0 -0.0301,-0.005 -0.0301,-0.0151 0,-0.008 -0.009,-0.0151 -0.0202,-0.0151 -0.0111,0 -0.0279,-0.009 -0.0374,-0.0201 -0.009,-0.011 -0.023,-0.0201 -0.03,-0.0201 -0.007,0 -0.0128,-0.007 -0.0128,-0.0151 0,-0.008 -0.007,-0.0151 -0.0151,-0.0151 -0.008,0 -0.0151,-0.007 -0.0151,-0.0151 0,-0.008 -0.007,-0.0151 -0.0151,-0.0151 -0.008,0 -0.0151,-0.007 -0.0151,-0.0151 0,-0.008 -0.005,-0.0151 -0.0111,-0.0151 -0.0154,0 -0.0588,-0.0424 -0.059,-0.0577 -1e-4,-0.007 -0.007,-0.0126 -0.0152,-0.0126 -0.008,0 -0.0151,-0.007 -0.0151,-0.0151 0,-0.008 -0.007,-0.0151 -0.0151,-0.0151 -0.008,0 -0.0151,-0.007 -0.0151,-0.0154 0,-0.008 -0.007,-0.0179 -0.0145,-0.0209 -0.008,-0.003 -0.0173,-0.0187 -0.0209,-0.0348 -0.004,-0.0161 -0.0128,-0.0293 -0.0207,-0.0293 -0.008,0 -0.0143,-0.007 -0.0143,-0.0151 0,-0.008 -0.004,-0.0151 -0.009,-0.0151 -0.005,0 -0.0122,-0.0135 -0.0159,-0.0301 -0.004,-0.0166 -0.013,-0.0301 -0.0209,-0.0301 -0.01,0 -0.0143,-0.0115 -0.0143,-0.0351 0,-0.023 -0.005,-0.0351 -0.0137,-0.0351 -0.009,0 -0.0159,-0.0158 -0.0193,-0.0416 -0.003,-0.0229 -0.0109,-0.0449 -0.0175,-0.049 -0.007,-0.004 -0.0143,-0.0282 -0.0171,-0.0538 -0.003,-0.0301 -0.0101,-0.0464 -0.019,-0.0464 -0.0103,0 -0.0138,-0.0167 -0.0138,-0.0653 0,-0.0513 -0.003,-0.0653 -0.0151,-0.0653 -0.013,0 -0.0151,-0.0351 -0.0151,-0.25603 0,-0.22088 0.002,-0.25603 0.0151,-0.25603 0.0119,0 0.0151,-0.0145 0.0151,-0.0703 0,-0.0528 0.003,-0.0703 0.0138,-0.0703 0.009,0 0.0156,-0.01636 0.019,-0.04642 0.003,-0.02553 0.0106,-0.04973 0.0171,-0.05378 0.007,-0.004 0.0144,-0.02608 0.0175,-0.04896 0.003,-0.02579 0.0108,-0.04161 0.0193,-0.04161 0.009,0 0.0137,-0.01133 0.0137,-0.03012 0,-0.01901 0.005,-0.03012 0.0139,-0.03012 0.008,0 0.0168,-0.01502 0.0205,-0.03514 0.004,-0.01933 0.0109,-0.03514 0.0162,-0.03514 0.005,0 0.01,-0.0068 0.01,-0.01506 0,-0.0083 0.006,-0.01506 0.0143,-0.01506 0.008,0 0.0172,-0.01355 0.0209,-0.03012 0.004,-0.01657 0.013,-0.03012 0.0209,-0.03012 0.008,0 0.0143,-0.009 0.0143,-0.02008 0,-0.01116 0.007,-0.02008 0.0151,-0.02008 0.008,0 0.0151,-0.0068 0.0151,-0.01506 0,-0.0083 0.007,-0.01506 0.0151,-0.01506 0.008,0 0.0151,-0.0068 0.0151,-0.01506 0,-0.0083 0.006,-0.01506 0.0139,-0.01506 0.008,0 0.0162,-0.009 0.0191,-0.02008 0.003,-0.01105 0.0125,-0.02008 0.0212,-0.02008 0.009,0 0.016,-0.0068 0.016,-0.01506 0,-0.0083 0.007,-0.01506 0.0151,-0.01506 0.008,0 0.0151,-0.0068 0.0151,-0.01506 0,-0.0083 0.007,-0.01506 0.0151,-0.01506 0.008,0 0.0151,-0.0068 0.0151,-0.01506 0,-0.0084 0.009,-0.01506 0.0201,-0.01506 0.011,0 0.0201,-0.0064 0.0201,-0.01426 0,-0.0078 0.0136,-0.01724 0.0301,-0.02088 0.0166,-0.0036 0.0301,-0.01303 0.0301,-0.02088 0,-0.0091 0.0108,-0.01426 0.0301,-0.01426 0.0201,0 0.0301,-0.005 0.0301,-0.01506 0,-0.0084 0.009,-0.01506 0.0201,-0.01506 0.0111,0 0.0201,-0.0067 0.0201,-0.01506 0,-0.01004 0.01,-0.01506 0.0301,-0.01506 0.0188,0 0.0301,-0.0052 0.0301,-0.01374 0,-0.0085 0.0158,-0.01586 0.0416,-0.01932 0.0229,-0.0031 0.0449,-0.01093 0.049,-0.01748 0.004,-0.0065 0.0282,-0.01425 0.0538,-0.01713 0.0301,-0.0034 0.0464,-0.01008 0.0464,-0.01899 0,-0.01034 0.0175,-0.01376 0.0703,-0.01376 0.0558,0 0.0703,-0.0031 0.0703,-0.01506 0,-0.01329 0.12495,-0.01506 1.06429,-0.01506 0.93933,0 1.06428,-0.0018 1.06428,-0.01506 0,-0.0083 -0.007,-0.01506 -0.0151,-0.01506 -0.008,0 -0.0151,-0.0068 -0.0151,-0.01506 0,-0.0083 -0.007,-0.01506 -0.0151,-0.01506 -0.008,0 -0.0151,-0.0089 -0.0151,-0.02008 0,-0.01116 -0.007,-0.02008 -0.0151,-0.02008 -0.008,0 -0.0151,-0.0068 -0.0151,-0.01506 0,-0.0083 -0.007,-0.01506 -0.0151,-0.01506 -0.008,0 -0.0151,-0.0068 -0.0151,-0.01506 0,-0.0083 -0.007,-0.01506 -0.016,-0.01506 -0.009,0 -0.0184,-0.009 -0.0213,-0.02008 -0.003,-0.01105 -0.0115,-0.02008 -0.0191,-0.02008 -0.008,0 -0.0139,-0.0068 -0.0139,-0.01506 0,-0.0083 -0.007,-0.01506 -0.0151,-0.01506 -0.008,0 -0.0151,-0.0068 -0.0151,-0.01506 0,-0.0084 -0.009,-0.01506 -0.0201,-0.01506 -0.0112,0 -0.0201,-0.0067 -0.0201,-0.01506 0,-0.0083 -0.007,-0.01506 -0.0151,-0.01506 -0.008,0 -0.0151,-0.0064 -0.0151,-0.01426 0,-0.0078 -0.0136,-0.01724 -0.0301,-0.02088 -0.0166,-0.0036 -0.0301,-0.01303 -0.0301,-0.02088 0,-0.0078 -0.007,-0.01426 -0.0151,-0.01426 -0.008,0 -0.0151,-0.0068 -0.0151,-0.01506 0,-0.0084 -0.009,-0.01506 -0.0201,-0.01506 -0.0112,0 -0.0201,-0.0067 -0.0201,-0.01506 0,-0.01004 -0.01,-0.01506 -0.0301,-0.01506 -0.0201,0 -0.0301,-0.005 -0.0301,-0.01506 0,-0.0083 -0.007,-0.01506 -0.0151,-0.01506 -0.008,0 -0.0151,-0.0066 -0.0151,-0.01461 0,-0.0087 -0.0141,-0.01725 -0.0351,-0.0212 -0.0201,-0.0038 -0.0351,-0.01255 -0.0351,-0.02054 0,-0.0088 -0.0111,-0.01394 -0.0301,-0.01394 -0.0201,0 -0.0301,-0.005 -0.0301,-0.01506 0,-0.01004 -0.01,-0.01506 -0.0301,-0.01506 -0.0201,0 -0.0301,-0.005 -0.0301,-0.01506 0,-0.01051 -0.0106,-0.01506 -0.0351,-0.01506 -0.0237,0 -0.0351,-0.0047 -0.0351,-0.01426 0,-0.0079 -0.0144,-0.01742 -0.0321,-0.0213 -0.0176,-0.0039 -0.0383,-0.01327 -0.0459,-0.02088 -0.008,-0.0076 -0.0293,-0.01384 -0.0483,-0.01384 -0.0239,0 -0.0344,-0.0046 -0.0344,-0.01506 0,-0.01138 -0.0123,-0.01506 -0.0502,-0.01506 -0.0379,0 -0.0502,-0.0037 -0.0502,-0.01506 0,-0.01173 -0.0134,-0.01506 -0.0606,-0.01506 -0.0417,0 -0.0622,-0.0042 -0.0658,-0.01359 -0.004,-0.0093 -0.0339,-0.01563 -0.097,-0.02011 -0.0561,-0.004 -0.0948,-0.01138 -0.0995,-0.01904 -0.0112,-0.01808 -0.5078,-0.01808 -0.51897,0 -0.005,0.0077 -0.0436,0.01507 -0.10004,0.01907 -0.0676,0.0048 -0.0923,0.01018 -0.0923,0.02011 0,0.01 -0.0172,0.01356 -0.0653,0.01356 -0.0513,0 -0.0653,0.0032 -0.0653,0.01506 0,0.01138 -0.0123,0.01506 -0.0502,0.01506 -0.0358,0 -0.0502,0.0039 -0.0502,0.01374 0,0.0085 -0.0158,0.01586 -0.0416,0.01932 -0.0229,0.0031 -0.0444,0.0099 -0.0477,0.01512 -0.003,0.0053 -0.0208,0.01273 -0.0387,0.01662 -0.0182,0.0039 -0.0326,0.0134 -0.0326,0.02134 0,0.0096 -0.0115,0.01426 -0.0351,0.01426 -0.0245,0 -0.0351,0.0045 -0.0351,0.01506 0,0.01004 -0.01,0.01506 -0.0301,0.01506 -0.0201,0 -0.0301,0.005 -0.0301,0.01506 0,0.01004 -0.01,0.01506 -0.0301,0.01506 -0.0201,0 -0.0301,0.005 -0.0301,0.01506 0,0.0083 -0.007,0.01506 -0.0154,0.01506 -0.008,0 -0.0179,0.0065 -0.0209,0.01445 -0.003,0.0079 -0.0187,0.01734 -0.0348,0.02088 -0.0161,0.0035 -0.0293,0.01285 -0.0293,0.02069 0,0.0091 -0.0108,0.01426 -0.0301,0.01426 -0.0201,0 -0.0301,0.005 -0.0301,0.01506 0,0.0084 -0.009,0.01506 -0.0201,0.01506 -0.0112,0 -0.0201,0.0067 -0.0201,0.01506 0,0.0083 -0.007,0.01506 -0.0151,0.01506 -0.008,0 -0.0151,0.0068 -0.0151,0.01506 0,0.0083 -0.006,0.01506 -0.0128,0.01506 -0.007,0 -0.0206,0.009 -0.03,0.02008 -0.009,0.01105 -0.024,0.02008 -0.0324,0.02008 -0.008,0 -0.0152,0.0068 -0.0152,0.01506 0,0.0084 -0.009,0.01506 -0.0201,0.01506 -0.0112,0 -0.0201,0.0067 -0.0201,0.01506 0,0.0083 -0.007,0.01506 -0.0151,0.01506 -0.008,0 -0.0151,0.005 -0.0151,0.01113 0,0.01542 -0.0424,0.05876 -0.0577,0.05897 -0.007,1e-4 -0.0126,0.007 -0.0126,0.01523 0,0.0083 -0.007,0.01506 -0.0151,0.01506 -0.008,0 -0.0151,0.0068 -0.0151,0.01506 0,0.0083 -0.007,0.01506 -0.0151,0.01506 -0.008,0 -0.0151,0.0089 -0.0151,0.02008 0,0.01116 -0.007,0.02008 -0.0151,0.02008 -0.008,0 -0.0151,0.0068 -0.0151,0.01506 0,0.0083 -0.006,0.01506 -0.0143,0.01506 -0.008,0 -0.0172,0.01356 -0.0209,0.03012 -0.004,0.01657 -0.013,0.03012 -0.0209,0.03012 -0.008,0 -0.0143,0.0068 -0.0143,0.01506 0,0.0083 -0.007,0.01506 -0.0151,0.01506 -0.008,0 -0.0151,0.0089 -0.0151,0.02008 0,0.01116 -0.007,0.02008 -0.0151,0.02008 -0.01,0 -0.0151,0.01004 -0.0151,0.03012 0,0.02008 -0.005,0.03012 -0.0151,0.03012 -0.008,0 -0.0151,0.0058 -0.0151,0.01283 0,0.0071 -0.009,0.02057 -0.0201,0.03002 -0.0111,0.0095 -0.0201,0.02627 -0.0201,0.03737 0,0.01124 -0.007,0.02018 -0.0151,0.02018 -0.01,0 -0.0151,0.01004 -0.0151,0.03012 0,0.02008 -0.005,0.03012 -0.0151,0.03012 -0.0101,0 -0.0151,0.01008 -0.0151,0.03044 0,0.01722 -0.006,0.03284 -0.0145,0.03598 -0.008,0.0031 -0.0173,0.01872 -0.0209,0.03483 -0.004,0.0161 -0.0102,0.02928 -0.0149,0.02928 -0.005,0 -0.0116,0.01443 -0.0155,0.03206 -0.004,0.01763 -0.0133,0.03829 -0.0209,0.0459 -0.008,0.0076 -0.0138,0.02933 -0.0138,0.04826 0,0.02391 -0.005,0.03442 -0.0151,0.03442 -0.0114,0 -0.0151,0.01227 -0.0151,0.0502 0,0.03599 -0.004,0.0502 -0.0139,0.0502 -0.01,0 -0.0152,0.01797 -0.0183,0.06104 -0.002,0.03357 -0.009,0.06407 -0.0153,0.06778 -0.006,0.0037 -0.0142,0.04965 -0.0182,0.10211 -0.004,0.0525 -0.0124,0.0986 -0.0185,0.10255 -0.0157,0.0101 -0.0157,0.49775 7e-5,0.50777 0.006,0.004 0.0146,0.0478 0.0187,0.0975 0.004,0.0497 0.0122,0.0934 0.0182,0.0971 0.006,0.004 0.0128,0.0342 0.0152,0.0678 0.003,0.0431 0.008,0.061 0.0183,0.061 0.01,0 0.0138,0.0142 0.0138,0.0502 0,0.0379 0.004,0.0502 0.0151,0.0502 0.0105,0 0.0151,0.0105 0.0151,0.0344 0,0.0189 0.006,0.0406 0.0138,0.0483 0.008,0.008 0.017,0.0283 0.0209,0.0459 0.004,0.0176 0.011,0.0321 0.0158,0.0321 0.005,0 0.0117,0.0158 0.0154,0.0352 0.004,0.0201 0.0126,0.0351 0.0205,0.0351 0.009,0 0.0139,0.0111 0.0139,0.0301 0,0.0201 0.005,0.0301 0.0151,0.0301 0.01,0 0.0151,0.01 0.0151,0.0301 0,0.019 0.005,0.0301 0.0139,0.0301 0.008,0 0.0168,0.015 0.0205,0.0351 0.004,0.021 0.0125,0.0351 0.0212,0.0351 0.008,0 0.0146,0.006 0.0146,0.014 0,0.008 0.007,0.0166 0.0151,0.0198 0.008,0.003 0.0151,0.0172 0.0151,0.0312 0,0.0159 0.006,0.0254 0.0151,0.0254 0.008,0 0.0151,0.009 0.0151,0.0201 0,0.0112 0.007,0.0201 0.0151,0.0201 0.008,0 0.0151,0.007 0.0151,0.0151 0,0.008 0.006,0.0151 0.0143,0.0151 0.008,0 0.0171,0.0132 0.0207,0.0293 0.004,0.0161 0.0129,0.0318 0.0209,0.0348 0.008,0.003 0.0144,0.0125 0.0144,0.0209 0,0.008 0.007,0.0154 0.0151,0.0154 0.008,0 0.0151,0.007 0.0151,0.0151 0,0.008 0.007,0.0151 0.0151,0.0151 0.008,0 0.0151,0.007 0.0151,0.0151 0,0.008 0.006,0.0151 0.0139,0.0151 0.008,0 0.0163,0.009 0.0191,0.0201 0.003,0.011 0.0125,0.0201 0.0212,0.0201 0.009,0 0.016,0.007 0.016,0.0151 0,0.008 0.007,0.0151 0.0151,0.0151 0.008,0 0.0151,0.007 0.0151,0.0151 0,0.008 0.007,0.0151 0.0151,0.0151 0.008,0 0.0151,0.007 0.0151,0.0151 0,0.008 0.007,0.0151 0.0154,0.0151 0.008,0 0.018,0.007 0.0212,0.0151 0.003,0.008 0.0121,0.0151 0.0199,0.0151 0.008,0 0.0218,0.009 0.0313,0.0201 0.009,0.011 0.023,0.0201 0.03,0.0201 0.007,0 0.0128,0.007 0.0128,0.0151 0,0.008 0.007,0.0151 0.0151,0.0151 0.008,0 0.0151,0.007 0.0151,0.0151 0,0.008 0.009,0.0151 0.0201,0.0151 0.011,0 0.0201,0.006 0.0201,0.0143 0,0.008 0.0136,0.0172 0.0301,0.0209 0.0166,0.004 0.0301,0.013 0.0301,0.0209 0,0.009 0.0108,0.0143 0.0301,0.0143 0.0201,0 0.0301,0.005 0.0301,0.0151 0,0.008 0.009,0.0151 0.0201,0.0151 0.0112,0 0.0201,0.007 0.0201,0.0151 0,0.01 0.01,0.0151 0.0301,0.0151 0.0201,0 0.0301,0.005 0.0301,0.0151 0,0.01 0.01,0.0151 0.0301,0.0151 0.019,0 0.0301,0.005 0.0301,0.0139 0,0.008 0.015,0.0168 0.0351,0.0205 0.021,0.004 0.0351,0.0125 0.0351,0.0212 0,0.01 0.0111,0.0146 0.0351,0.0146 0.0245,0 0.0351,0.005 0.0351,0.0151 0,0.0111 0.0117,0.0151 0.0452,0.0151 0.0335,0 0.0452,0.004 0.0452,0.0151 0,0.0114 0.0123,0.0151 0.0502,0.0151 0.0357,0 0.0502,0.004 0.0502,0.0137 0,0.009 0.0191,0.0154 0.0617,0.0192 0.0339,0.003 0.0648,0.0106 0.0686,0.0168 0.004,0.006 0.0472,0.014 0.0965,0.0174 0.0591,0.004 0.0923,0.0108 0.0976,0.0197 0.0121,0.0204 0.51909,0.02 0.51909,-4.8e-4 z m 4.92983,-2.0643 v -0.26105 h 0.38656 0.38655 v 0.26105 0.26105 h -0.38655 -0.38656 z m -2.07836,-5.95396 c 0,-3.670323 -0.002,-4.136643 -0.0151,-4.136643 -0.0112,0 -0.0151,-0.01171 -0.0151,-0.04518 0,-0.03347 -0.004,-0.04518 -0.0151,-0.04518 -0.008,0 -0.0151,-0.0069 -0.0151,-0.01538 0,-0.0085 -0.007,-0.01798 -0.0151,-0.02116 -0.008,-0.0032 -0.0151,-0.01207 -0.0151,-0.01976 0,-0.0077 -0.007,-0.01399 -0.0151,-0.01399 -0.008,0 -0.0151,-0.0068 -0.0151,-0.01506 0,-0.0084 -0.009,-0.01506 -0.0201,-0.01506 -0.0112,0 -0.0201,-0.0067 -0.0201,-0.01506 0,-0.0083 -0.007,-0.01506 -0.0151,-0.01506 -0.008,0 -0.0151,-0.0062 -0.0151,-0.01377 0,-0.0089 -0.0174,-0.01608 -0.0494,-0.02033 -0.0272,-0.0036 -0.0513,-0.0121 -0.0536,-0.01886 -0.006,-0.01802 -5.63151,-0.01802 -5.63752,0 -0.002,0.0068 -0.0264,0.01526 -0.0536,0.01886 -0.032,0.0042 -0.0495,0.01142 -0.0495,0.02033 0,0.0076 -0.007,0.01377 -0.0151,0.01377 -0.008,0 -0.0151,0.0068 -0.0151,0.01506 0,0.0084 -0.009,0.01506 -0.0201,0.01506 -0.011,0 -0.0203,0.0056 -0.0205,0.01255 -2.3e-4,0.0069 -0.0138,0.02363 -0.0301,0.03718 -0.0163,0.01355 -0.0297,0.03049 -0.0297,0.03765 0,0.0072 -0.007,0.01302 -0.0151,0.01302 -0.0112,0 -0.0151,0.01171 -0.0151,0.04518 0,0.03347 -0.004,0.04518 -0.0151,0.04518 -0.0132,0 -0.0151,0.09148 -0.0151,0.76307 v 0.76307 h -0.26123 -0.26123 l 0.003,-0.78854 c 0.002,-0.559566 0.006,-0.790618 0.0137,-0.795701 0.006,-0.0039 0.0137,-0.03385 0.017,-0.06646 0.003,-0.03262 0.0104,-0.06203 0.0158,-0.06536 0.005,-0.0033 0.0132,-0.01953 0.0173,-0.03598 0.004,-0.01646 0.0135,-0.03594 0.0209,-0.04329 0.007,-0.0074 0.0134,-0.02208 0.0134,-0.03273 0,-0.01065 0.007,-0.01936 0.0151,-0.01936 0.01,0 0.0151,-0.01004 0.0151,-0.03012 0,-0.02008 0.005,-0.03012 0.0151,-0.03012 0.008,0 0.0151,-0.0089 0.0151,-0.02018 0,-0.0111 0.009,-0.02792 0.0201,-0.03737 0.011,-0.0095 0.0201,-0.02297 0.0201,-0.03002 0,-0.0071 0.007,-0.01283 0.0151,-0.01283 0.008,0 0.0151,-0.0068 0.0151,-0.01506 0,-0.0083 0.007,-0.01506 0.0151,-0.01506 0.008,0 0.0151,-0.0068 0.0151,-0.01506 0,-0.0083 0.007,-0.01506 0.0151,-0.01506 0.008,0 0.0151,-0.0072 0.0151,-0.016 0,-0.0088 0.009,-0.01836 0.0201,-0.02125 0.0111,-0.0029 0.0201,-0.0115 0.0201,-0.01914 0,-0.0076 0.007,-0.01389 0.0151,-0.01389 0.008,0 0.0151,-0.0068 0.0151,-0.01506 0,-0.01004 0.01,-0.01506 0.0301,-0.01506 0.0193,0 0.0301,-0.0051 0.0301,-0.01426 0,-0.0078 0.0132,-0.01716 0.0293,-0.02069 0.0161,-0.0035 0.0318,-0.01293 0.0348,-0.02088 0.003,-0.0082 0.0188,-0.01445 0.036,-0.01445 0.0204,0 0.0304,-0.005 0.0304,-0.01506 0,-0.01052 0.0106,-0.01506 0.0351,-0.01506 0.0245,0 0.0351,-0.0045 0.0351,-0.01506 0,-0.01172 0.0134,-0.01506 0.0606,-0.01506 0.0446,0 0.0621,-0.004 0.0663,-0.01506 0.005,-0.01334 0.33498,-0.01506 2.88522,-0.01506 2.55025,0 2.88011,0.0017 2.88523,0.01506 0.004,0.01108 0.0218,0.01506 0.0663,0.01506 0.0471,0 0.0605,0.0033 0.0605,0.01506 0,0.01052 0.0106,0.01506 0.0351,0.01506 0.0246,0 0.0351,0.0045 0.0351,0.01506 0,0.01008 0.0101,0.01506 0.0304,0.01506 0.0172,0 0.0328,0.0063 0.036,0.01445 0.003,0.0079 0.0187,0.01734 0.0348,0.02088 0.0161,0.0035 0.0293,0.01285 0.0293,0.02069 0,0.0092 0.0108,0.01426 0.0301,0.01426 0.0201,0 0.0301,0.005 0.0301,0.01506 0,0.0083 0.007,0.01506 0.0151,0.01506 0.008,0 0.0151,0.0063 0.0151,0.01389 0,0.0076 0.009,0.01625 0.0201,0.01914 0.0111,0.0029 0.0201,0.01245 0.0201,0.02125 0,0.0088 0.007,0.016 0.0151,0.016 0.008,0 0.0151,0.0068 0.0151,0.01506 0,0.0083 0.007,0.01506 0.0151,0.01506 0.008,0 0.0151,0.0068 0.0151,0.01506 0,0.0083 0.007,0.01506 0.0151,0.01506 0.008,0 0.0151,0.0069 0.0151,0.01537 0,0.0085 0.006,0.01787 0.0144,0.02092 0.008,0.003 0.0173,0.01872 0.0209,0.03483 0.004,0.01611 0.0129,0.02928 0.0207,0.02928 0.009,0 0.0143,0.01079 0.0143,0.03012 0,0.02008 0.005,0.03012 0.0151,0.03012 0.008,0 0.0151,0.0087 0.0151,0.01936 0,0.01065 0.006,0.02538 0.0134,0.03273 0.007,0.0074 0.0168,0.02683 0.0209,0.04329 0.004,0.01646 0.0119,0.03265 0.0173,0.03598 0.005,0.0033 0.0125,0.03275 0.0158,0.06536 0.003,0.03262 0.0109,0.06253 0.017,0.06647 0.008,0.0052 0.0117,1.156743 0.0136,4.169274 l 0.003,4.162111 h -0.2611 -0.2611 z m -8.59458,3.453897 c 0,-0.02008 -0.005,-0.03012 -0.0151,-0.03012 -0.01,0 -0.0151,-0.01004 -0.0151,-0.03012 0,-0.02008 -0.005,-0.03012 -0.0151,-0.03012 -0.008,0 -0.0151,-0.0089 -0.0151,-0.02018 0,-0.0111 -0.009,-0.02792 -0.0201,-0.03737 -0.0111,-0.0095 -0.0201,-0.02962 -0.0201,-0.04508 0,-0.0181 -0.005,-0.02789 -0.0151,-0.02789 -0.0105,0 -0.0151,-0.0106 -0.0151,-0.03514 0,-0.02454 -0.005,-0.03514 -0.0151,-0.03514 -0.01,0 -0.0151,-0.01004 -0.0151,-0.03012 0,-0.02008 -0.005,-0.03012 -0.0151,-0.03012 -0.0101,0 -0.0151,-0.01008 -0.0151,-0.03044 0,-0.01722 -0.006,-0.03284 -0.0145,-0.03598 -0.008,-0.0031 -0.0175,-0.01959 -0.0213,-0.03677 -0.004,-0.01717 -0.0131,-0.03745 -0.0207,-0.04506 -0.008,-0.0076 -0.0138,-0.02933 -0.0138,-0.04826 0,-0.0239 -0.005,-0.03442 -0.0151,-0.03442 -0.0105,0 -0.0151,-0.0106 -0.0151,-0.03514 0,-0.02454 -0.005,-0.03514 -0.0151,-0.03514 -0.0109,0 -0.0151,-0.01119 -0.0151,-0.04048 0,-0.02612 -0.005,-0.04246 -0.0146,-0.04607 -0.008,-0.0031 -0.0175,-0.02522 -0.0211,-0.04921 -0.004,-0.02399 -0.0128,-0.04604 -0.0206,-0.049 -0.009,-0.0035 -0.014,-0.0212 -0.014,-0.05088 0,-0.03375 -0.004,-0.0455 -0.0151,-0.0455 -0.0105,0 -0.0151,-0.0106 -0.0151,-0.03514 0,-0.02454 -0.005,-0.03514 -0.0151,-0.03514 -0.0113,0 -0.0151,-0.01219 -0.0151,-0.04949 0,-0.02792 -0.006,-0.05533 -0.0134,-0.06291 -0.007,-0.0074 -0.0161,-0.03321 -0.0193,-0.05739 -0.003,-0.02418 -0.0111,-0.0472 -0.0175,-0.05115 -0.006,-0.004 -0.0142,-0.03493 -0.0172,-0.06884 -0.004,-0.04257 -0.01,-0.06165 -0.0193,-0.06165 -0.0101,0 -0.0137,-0.0169 -0.0137,-0.06526 0,-0.05132 -0.003,-0.06526 -0.0151,-0.06526 -0.0119,0 -0.0151,-0.01394 -0.0151,-0.06526 0,-0.04817 -0.004,-0.06526 -0.0136,-0.06526 -0.01,0 -0.0155,-0.02222 -0.0201,-0.07724 -0.004,-0.04248 -0.0104,-0.07976 -0.0151,-0.08283 -0.005,-0.0031 -0.0117,-0.04164 -0.0157,-0.08571 -0.004,-0.04407 -0.0121,-0.08318 -0.0181,-0.08693 -0.006,-0.0039 -0.013,-0.05188 -0.0157,-0.113159 -0.004,-0.08101 -0.008,-0.106349 -0.0185,-0.106349 -0.0111,0 -0.0137,-0.03447 -0.0137,-0.180727 0,-0.153953 -0.002,-0.180728 -0.0151,-0.180728 -0.0131,0 -0.0151,-0.05355 -0.0151,-0.421696 0,-0.368148 0.002,-0.421697 0.0151,-0.421697 0.0128,0 0.0151,-0.02622 0.0151,-0.175707 0,-0.142012 0.003,-0.175707 0.0137,-0.175707 0.0105,0 0.0149,-0.02534 0.0185,-0.106348 0.003,-0.06128 0.009,-0.109235 0.0157,-0.113159 0.006,-0.0037 0.0142,-0.04287 0.0181,-0.08693 0.004,-0.04407 0.011,-0.08264 0.0157,-0.08571 0.005,-0.0031 0.0115,-0.04035 0.0151,-0.08283 0.005,-0.05503 0.0104,-0.07724 0.0201,-0.07724 0.01,0 0.0136,-0.01709 0.0136,-0.06526 0,-0.05132 0.003,-0.06526 0.0151,-0.06526 0.0118,0 0.0151,-0.01395 0.0151,-0.06526 0,-0.04836 0.004,-0.06526 0.0137,-0.06526 0.009,0 0.0154,-0.01908 0.0193,-0.06165 0.003,-0.03391 0.0108,-0.06488 0.0172,-0.06884 0.006,-0.004 0.0143,-0.02697 0.0175,-0.05115 0.003,-0.02418 0.0119,-0.05 0.0193,-0.05739 0.008,-0.0076 0.0134,-0.03499 0.0134,-0.06291 0,-0.03729 0.004,-0.04948 0.0151,-0.04948 0.0114,0 0.0151,-0.01227 0.0151,-0.0502 0,-0.03793 0.004,-0.0502 0.0151,-0.0502 0.0105,0 0.0151,-0.0106 0.0151,-0.03514 0,-0.02304 0.005,-0.03514 0.0137,-0.03514 0.009,0 0.0159,-0.01587 0.0194,-0.04187 0.003,-0.02303 0.0127,-0.04584 0.0214,-0.0507 0.0107,-0.006 0.0158,-0.02332 0.0158,-0.05352 0,-0.03303 0.004,-0.04468 0.0151,-0.04468 0.01,0 0.0151,-0.01004 0.0151,-0.03012 0,-0.01881 0.005,-0.03012 0.0138,-0.03012 0.009,0 0.0156,-0.01636 0.019,-0.04642 0.003,-0.02553 0.01,-0.0493 0.0156,-0.05281 0.006,-0.0035 0.0134,-0.01844 0.0171,-0.03317 0.004,-0.01473 0.0131,-0.02923 0.0209,-0.03222 0.008,-0.003 0.0142,-0.01894 0.0142,-0.03587 0,-0.02036 0.005,-0.03044 0.0151,-0.03044 0.0105,0 0.0151,-0.0106 0.0151,-0.03514 0,-0.02454 0.005,-0.03514 0.0151,-0.03514 0.01,0 0.0151,-0.01004 0.0151,-0.03012 0,-0.02008 0.005,-0.03012 0.0151,-0.03012 0.01,0 0.0151,-0.0098 0.0151,-0.02789 0,-0.01547 0.009,-0.03555 0.0201,-0.04508 0.0111,-0.0095 0.0201,-0.02627 0.0201,-0.03737 0,-0.01124 0.007,-0.02018 0.0151,-0.02018 0.01,0 0.0151,-0.01004 0.0151,-0.03012 0,-0.02008 0.005,-0.03012 0.0151,-0.03012 0.01,0 0.0151,-0.01004 0.0151,-0.03012 0,-0.02008 0.005,-0.03012 0.0151,-0.03012 0.008,0 0.0151,0.0045 0.0151,0.01004 0,0.0055 0.009,0.01004 0.0202,0.01004 0.0111,0 0.0279,0.009 0.0374,0.02008 0.01,0.01113 0.0296,0.02008 0.0451,0.02008 0.0181,0 0.0279,0.0053 0.0279,0.01506 0,0.0084 0.009,0.01506 0.0201,0.01506 0.0111,0 0.0201,0.0067 0.0201,0.01506 0,0.01004 0.01,0.01506 0.0301,0.01506 0.0201,0 0.0301,0.005 0.0301,0.01506 0,0.0083 0.009,0.01506 0.0194,0.01506 0.0106,0 0.0262,0.0068 0.0346,0.0152 0.008,0.0084 0.029,0.01796 0.0459,0.02134 0.0169,0.0034 0.0307,0.01235 0.0307,0.01995 0,0.0086 0.0113,0.01381 0.0301,0.01381 0.0277,0 0.0301,0.0028 0.0301,0.03514 0,0.02454 -0.005,0.03514 -0.0151,0.03514 -0.01,0 -0.0151,0.01004 -0.0151,0.03012 0,0.02008 -0.005,0.03012 -0.0151,0.03012 -0.0101,0 -0.0151,0.01008 -0.0151,0.03044 0,0.01779 -0.006,0.03284 -0.0151,0.03621 -0.008,0.0032 -0.0151,0.01673 -0.0151,0.03012 0,0.01339 -0.007,0.02684 -0.0144,0.02989 -0.008,0.0031 -0.0175,0.01985 -0.0214,0.03734 -0.004,0.01748 -0.0115,0.03471 -0.0171,0.03828 -0.006,0.0036 -0.0132,0.0239 -0.0169,0.04518 -0.004,0.0219 -0.0119,0.03761 -0.0187,0.03619 -0.007,-0.0016 -0.0119,0.01078 -0.0119,0.03263 0,0.02329 -0.005,0.03514 -0.0139,0.03514 -0.008,0 -0.0167,0.01484 -0.0204,0.03441 -0.004,0.01892 -0.0111,0.03597 -0.0168,0.03787 -0.006,0.0019 -0.0129,0.02256 -0.0161,0.04591 -0.004,0.02645 -0.0109,0.04245 -0.0194,0.04245 -0.009,0 -0.0137,0.0121 -0.0137,0.03514 0,0.02454 -0.005,0.03514 -0.0151,0.03514 -0.0114,0 -0.0151,0.01227 -0.0151,0.0502 0,0.03578 -0.004,0.0502 -0.0137,0.0502 -0.009,0 -0.0159,0.016 -0.0194,0.04246 -0.003,0.02335 -0.0104,0.04402 -0.0161,0.04594 -0.006,0.0019 -0.0134,0.02573 -0.017,0.05293 -0.004,0.032 -0.0114,0.04945 -0.0203,0.04945 -0.01,0 -0.0138,0.01437 -0.0138,0.0502 0,0.03793 -0.004,0.0502 -0.0151,0.0502 -0.0114,0 -0.0151,0.01227 -0.0151,0.0502 0,0.03793 -0.004,0.0502 -0.0151,0.0502 -0.0117,0 -0.0151,0.01339 -0.0151,0.06024 0,0.04452 -0.004,0.06024 -0.0139,0.06024 -0.01,0 -0.0151,0.01797 -0.0183,0.06104 -0.003,0.03507 -0.01,0.06449 -0.0175,0.06914 -0.008,0.0049 -0.0151,0.03695 -0.0182,0.08204 -0.003,0.0472 -0.0101,0.07683 -0.0188,0.08196 -0.01,0.0057 -0.0137,0.03107 -0.0137,0.08785 0,0.06197 -0.003,0.07982 -0.0141,0.07982 -0.0111,0 -0.0149,0.02311 -0.0176,0.105805 -0.002,0.06209 -0.008,0.108759 -0.0145,0.112955 -0.007,0.0043 -0.0137,0.06358 -0.0176,0.147132 -0.004,0.0949 -0.0106,0.142478 -0.0191,0.147729 -0.018,0.01116 -0.0183,0.889217 -2.3e-4,0.900373 0.008,0.0051 0.0145,0.05545 0.0191,0.15275 0.004,0.08715 0.0112,0.147999 0.0178,0.152292 0.006,0.0042 0.0125,0.0508 0.0145,0.112955 0.003,0.0827 0.007,0.105805 0.0176,0.105805 0.011,0 0.0141,0.01785 0.0141,0.07982 0,0.05728 0.004,0.08209 0.0138,0.08785 0.009,0.0051 0.0154,0.03262 0.0181,0.07649 0.002,0.03984 0.01,0.07171 0.0168,0.07624 0.007,0.0043 0.0153,0.03447 0.0185,0.06708 0.003,0.03357 0.0118,0.06279 0.0195,0.06733 0.009,0.0053 0.0136,0.02821 0.0136,0.06777 0,0.04641 0.003,0.05974 0.0151,0.05974 0.0114,0 0.0151,0.01227 0.0151,0.0502 0,0.03793 0.004,0.0502 0.0151,0.0502 0.0114,0 0.0151,0.01227 0.0151,0.0502 0,0.03583 0.004,0.0502 0.0138,0.0502 0.009,0 0.0161,0.01744 0.0203,0.04945 0.004,0.0272 0.0113,0.05101 0.017,0.05293 0.006,0.0019 0.013,0.02259 0.0161,0.04594 0.004,0.02645 0.0109,0.04246 0.0194,0.04246 0.01,0 0.0137,0.01442 0.0137,0.0502 0,0.03793 0.004,0.0502 0.0151,0.0502 0.01,0 0.0151,0.01 0.0151,0.02962 0,0.01629 0.006,0.03324 0.0135,0.03765 0.007,0.0044 0.0164,0.02607 0.0198,0.04811 0.003,0.02204 0.0108,0.04158 0.0163,0.0434 0.005,0.0018 0.0129,0.0188 0.0164,0.03773 0.004,0.01957 0.0125,0.03441 0.0204,0.03441 0.009,0 0.0139,0.01111 0.0139,0.03012 0,0.02008 0.005,0.03012 0.0151,0.03012 0.0104,0 0.0151,0.01051 0.0151,0.03442 0,0.01893 0.006,0.04065 0.0138,0.04826 0.008,0.0076 0.017,0.02827 0.0209,0.0459 0.004,0.0177 0.0134,0.03206 0.0213,0.03206 0.009,0 0.0143,0.01064 0.0143,0.02905 0,0.01656 0.006,0.03153 0.0151,0.03483 0.009,0.0034 0.0151,0.01842 0.0151,0.03622 0,0.02036 0.005,0.03043 0.0151,0.03043 0.01,0 0.0151,0.01004 0.0151,0.03012 0,0.02008 0.005,0.03012 0.0151,0.03012 0.0105,0 0.0151,0.0106 0.0151,0.03514 0,0.03235 -0.002,0.03514 -0.0301,0.03514 -0.0201,0 -0.0301,0.005 -0.0301,0.01506 0,0.01007 -0.0101,0.01506 -0.0304,0.01506 -0.0172,0 -0.0328,0.0063 -0.036,0.01445 -0.003,0.0079 -0.0187,0.01734 -0.0348,0.02088 -0.0161,0.0035 -0.0293,0.01285 -0.0293,0.02069 0,0.0092 -0.0108,0.01426 -0.0301,0.01426 -0.0201,0 -0.0301,0.005 -0.0301,0.01506 0,0.0084 -0.009,0.01506 -0.0201,0.01506 -0.0112,0 -0.0201,0.0067 -0.0201,0.01506 0,0.01008 -0.0101,0.01506 -0.0304,0.01506 -0.0178,0 -0.0328,0.0063 -0.0362,0.01506 -0.003,0.0083 -0.0167,0.01506 -0.0301,0.01506 -0.0134,0 -0.0269,0.0068 -0.0301,0.01506 -0.0105,0.02731 -0.0337,0.01693 -0.0337,-0.01506 z m 10.93036,0.01506 c -0.003,-0.0083 -0.0167,-0.01506 -0.0301,-0.01506 -0.0134,0 -0.0269,-0.0068 -0.0301,-0.01506 -0.003,-0.0083 -0.0127,-0.01506 -0.0212,-0.01506 -0.008,0 -0.0154,-0.0068 -0.0154,-0.01506 0,-0.01051 -0.0106,-0.01506 -0.0351,-0.01506 -0.0246,0 -0.0351,-0.0045 -0.0351,-0.01506 0,-0.01004 -0.01,-0.01506 -0.0301,-0.01506 -0.0193,0 -0.0301,-0.0051 -0.0301,-0.01426 0,-0.0078 -0.0132,-0.01716 -0.0293,-0.02069 -0.0161,-0.0035 -0.0318,-0.01293 -0.0348,-0.02088 -0.003,-0.0082 -0.0188,-0.01445 -0.036,-0.01445 -0.0204,0 -0.0304,-0.005 -0.0304,-0.01506 0,-0.01004 -0.01,-0.01506 -0.0301,-0.01506 -0.0277,0 -0.0301,-0.0028 -0.0301,-0.03514 0,-0.02454 0.005,-0.03514 0.0151,-0.03514 0.01,0 0.0151,-0.01004 0.0151,-0.03012 0,-0.02008 0.005,-0.03012 0.0151,-0.03012 0.0105,0 0.0151,-0.0106 0.0151,-0.03514 0,-0.02454 0.005,-0.03514 0.0151,-0.03514 0.01,0 0.0151,-0.01004 0.0151,-0.03012 0,-0.01933 0.005,-0.03012 0.0143,-0.03012 0.008,0 0.0174,-0.01436 0.0213,-0.03206 0.004,-0.01763 0.0133,-0.03829 0.0209,-0.0459 0.008,-0.0076 0.0138,-0.02933 0.0138,-0.04826 0,-0.0239 0.005,-0.03442 0.0151,-0.03442 0.01,0 0.0151,-0.01004 0.0151,-0.03012 0,-0.01901 0.005,-0.03012 0.0139,-0.03012 0.008,0 0.0167,-0.01484 0.0204,-0.03441 0.004,-0.01892 0.0109,-0.0359 0.0164,-0.03773 0.005,-0.0018 0.0128,-0.02136 0.0163,-0.0434 0.003,-0.02205 0.0124,-0.0437 0.0198,-0.04811 0.007,-0.0044 0.0135,-0.02136 0.0135,-0.03765 0,-0.01964 0.005,-0.02962 0.0151,-0.02962 0.0114,0 0.0151,-0.01227 0.0151,-0.0502 0,-0.03793 0.004,-0.0502 0.0151,-0.0502 0.0104,0 0.0151,-0.01051 0.0151,-0.03442 0,-0.01893 0.007,-0.04125 0.0152,-0.04959 0.008,-0.0083 0.018,-0.03577 0.0214,-0.06096 0.004,-0.02891 0.0113,-0.04579 0.02,-0.04579 0.01,0 0.0137,-0.01449 0.0137,-0.0502 0,-0.03793 0.004,-0.0502 0.0151,-0.0502 0.0114,0 0.0151,-0.01227 0.0151,-0.0502 0,-0.03793 0.004,-0.0502 0.0151,-0.0502 0.0117,0 0.0151,-0.01333 0.0151,-0.05974 0,-0.03956 0.005,-0.06246 0.0136,-0.06777 0.008,-0.0045 0.0162,-0.03376 0.0195,-0.06733 0.003,-0.03262 0.0108,-0.06231 0.0168,-0.06599 0.006,-0.0037 0.0137,-0.03799 0.0171,-0.07624 0.004,-0.04192 0.0117,-0.07275 0.0199,-0.07759 0.01,-0.0057 0.0136,-0.03147 0.0136,-0.08785 0,-0.06197 0.003,-0.07982 0.0142,-0.07982 0.0111,0 0.0149,-0.02311 0.0176,-0.105805 0.002,-0.06247 0.008,-0.108734 0.0145,-0.112955 0.007,-0.0044 0.0139,-0.0678 0.0182,-0.162559 0.004,-0.09801 0.0113,-0.158018 0.0185,-0.162466 0.008,-0.0051 0.0114,-0.12369 0.0114,-0.425113 0,-0.301423 -0.003,-0.420027 -0.0114,-0.425113 -0.007,-0.0044 -0.014,-0.06446 -0.0185,-0.162466 -0.004,-0.09476 -0.0114,-0.1582 -0.0182,-0.162559 -0.007,-0.0042 -0.0125,-0.05049 -0.0145,-0.112955 -0.003,-0.0827 -0.007,-0.105805 -0.0176,-0.105805 -0.011,0 -0.0142,-0.01785 -0.0142,-0.07982 0,-0.05638 -0.004,-0.08218 -0.0136,-0.08785 -0.008,-0.0048 -0.0161,-0.03567 -0.0199,-0.07759 -0.003,-0.03826 -0.0114,-0.0727 -0.0176,-0.07655 -0.006,-0.0038 -0.0137,-0.03693 -0.0166,-0.07352 -0.004,-0.04686 -0.009,-0.06653 -0.019,-0.06653 -0.01,0 -0.0137,-0.01608 -0.0137,-0.06024 0,-0.04685 -0.003,-0.06024 -0.0151,-0.06024 -0.0114,0 -0.0151,-0.01227 -0.0151,-0.0502 0,-0.03793 -0.004,-0.0502 -0.0151,-0.0502 -0.0114,0 -0.0151,-0.01227 -0.0151,-0.0502 0,-0.03583 -0.004,-0.0502 -0.0138,-0.0502 -0.009,0 -0.0161,-0.01744 -0.0203,-0.04945 -0.004,-0.0272 -0.0113,-0.05101 -0.017,-0.05293 -0.006,-0.0019 -0.013,-0.02259 -0.0161,-0.04594 -0.004,-0.02646 -0.0109,-0.04246 -0.0194,-0.04246 -0.01,0 -0.0137,-0.01442 -0.0137,-0.0502 0,-0.03793 -0.004,-0.0502 -0.0151,-0.0502 -0.01,0 -0.0151,-0.01 -0.0151,-0.02962 0,-0.01629 -0.006,-0.03324 -0.0135,-0.03765 -0.007,-0.0044 -0.0164,-0.02607 -0.0198,-0.04811 -0.003,-0.02205 -0.0108,-0.04158 -0.0163,-0.0434 -0.005,-0.0018 -0.0129,-0.01881 -0.0164,-0.03773 -0.004,-0.01957 -0.0125,-0.03441 -0.0204,-0.03441 -0.009,0 -0.0139,-0.01111 -0.0139,-0.03012 0,-0.02008 -0.005,-0.03012 -0.0151,-0.03012 -0.0105,0 -0.0151,-0.01051 -0.0151,-0.03442 0,-0.01893 -0.006,-0.04065 -0.0138,-0.04826 -0.008,-0.0076 -0.0169,-0.02789 -0.0207,-0.04506 -0.004,-0.01717 -0.0134,-0.03372 -0.0213,-0.03677 -0.008,-0.0031 -0.0144,-0.0165 -0.0144,-0.02989 0,-0.01339 -0.007,-0.02694 -0.0151,-0.03012 -0.009,-0.0034 -0.0151,-0.01842 -0.0151,-0.03622 0,-0.02036 -0.005,-0.03044 -0.0151,-0.03044 -0.01,0 -0.0151,-0.01004 -0.0151,-0.03012 0,-0.02008 -0.005,-0.03012 -0.0151,-0.03012 -0.0105,0 -0.0151,-0.0106 -0.0151,-0.03514 0,-0.03235 0.002,-0.03514 0.0301,-0.03514 0.0189,0 0.0301,-0.0052 0.0301,-0.01381 0,-0.0076 0.0138,-0.01657 0.0307,-0.01995 0.0169,-0.0034 0.0375,-0.01298 0.0459,-0.02134 0.008,-0.0084 0.0239,-0.0152 0.0346,-0.0152 0.0106,0 0.0194,-0.0068 0.0194,-0.01506 0,-0.01004 0.01,-0.01506 0.0301,-0.01506 0.019,0 0.0301,-0.0051 0.0301,-0.01394 0,-0.008 0.015,-0.01676 0.0351,-0.02053 0.0193,-0.0036 0.0351,-0.01091 0.0351,-0.01618 0,-0.0053 0.007,-0.0096 0.0154,-0.0096 0.008,0 0.0179,-0.0065 0.0209,-0.01445 0.003,-0.0079 0.0187,-0.01734 0.0348,-0.02088 0.0161,-0.0035 0.0293,-0.01059 0.0293,-0.01568 0,-0.0051 0.007,-0.0092 0.0151,-0.0092 0.01,0 0.0151,0.01004 0.0151,0.03012 0,0.02008 0.005,0.03012 0.0151,0.03012 0.01,0 0.0151,0.01004 0.0151,0.03012 0,0.02008 0.005,0.03012 0.0151,0.03012 0.008,0 0.0151,0.0089 0.0151,0.02018 0,0.0111 0.009,0.02792 0.0201,0.03737 0.0111,0.0095 0.0201,0.02962 0.0201,0.04508 0,0.0181 0.005,0.02789 0.0151,0.02789 0.01,0 0.0151,0.01004 0.0151,0.03012 0,0.02008 0.005,0.03012 0.0151,0.03012 0.0105,0 0.0151,0.0106 0.0151,0.03514 0,0.02454 0.005,0.03514 0.0151,0.03514 0.0101,0 0.0151,0.01008 0.0151,0.03043 0,0.01693 0.006,0.03285 0.0142,0.03587 0.008,0.003 0.0172,0.01748 0.0209,0.03222 0.004,0.01473 0.0114,0.02966 0.0171,0.03317 0.006,0.0035 0.0127,0.02728 0.0156,0.05281 0.003,0.03007 0.0101,0.04642 0.019,0.04642 0.009,0 0.0138,0.01131 0.0138,0.03012 0,0.02008 0.005,0.03012 0.0151,0.03012 0.0111,0 0.0151,0.01165 0.0151,0.04468 0,0.02969 0.005,0.04757 0.0154,0.05329 0.008,0.0047 0.0182,0.02642 0.0216,0.04819 0.003,0.02177 0.0123,0.0432 0.0198,0.04762 0.008,0.0048 0.0135,0.02589 0.0135,0.05271 0,0.03302 0.004,0.04468 0.0151,0.04468 0.0112,0 0.0151,0.01172 0.0151,0.04518 0,0.03347 0.004,0.04518 0.0151,0.04518 0.0108,0 0.0151,0.01107 0.0151,0.03945 0,0.02169 0.006,0.04548 0.0134,0.05287 0.007,0.0074 0.0161,0.03321 0.0193,0.05739 0.003,0.02418 0.0111,0.0472 0.0175,0.05115 0.006,0.004 0.0141,0.03493 0.0172,0.06884 0.004,0.04257 0.01,0.06165 0.0193,0.06165 0.0101,0 0.0137,0.01691 0.0137,0.06526 0,0.05132 0.003,0.06526 0.0151,0.06526 0.0118,0 0.0151,0.01395 0.0151,0.06526 0,0.04817 0.004,0.06526 0.0136,0.06526 0.01,0 0.0155,0.02222 0.0201,0.07724 0.004,0.04248 0.0104,0.07976 0.0152,0.08283 0.005,0.0031 0.012,0.04625 0.0161,0.09595 0.004,0.0497 0.0126,0.09358 0.0189,0.09752 0.007,0.0043 0.0129,0.04559 0.0149,0.102914 0.003,0.07385 0.007,0.09576 0.0176,0.09576 0.0116,0 0.0141,0.0323 0.0141,0.180728 0,0.153952 0.002,0.180726 0.0151,0.180726 0.0131,0 0.0151,0.05299 0.0151,0.416676 0,0.363686 -0.002,0.416677 -0.0151,0.416677 -0.0128,0 -0.0151,0.02678 -0.0151,0.180728 0,0.148428 -0.003,0.180726 -0.0141,0.180726 -0.0109,0 -0.0149,0.02191 -0.0176,0.09576 -0.002,0.05732 -0.008,0.09863 -0.0149,0.102913 -0.006,0.0039 -0.0148,0.04782 -0.0189,0.09752 -0.004,0.0497 -0.0113,0.09288 -0.0161,0.09595 -0.005,0.0031 -0.0116,0.04035 -0.0152,0.08283 -0.005,0.05503 -0.0104,0.07724 -0.0201,0.07724 -0.01,0 -0.0136,0.01709 -0.0136,0.06526 0,0.05132 -0.003,0.06526 -0.0151,0.06526 -0.0119,0 -0.0151,0.01395 -0.0151,0.06526 0,0.04836 -0.004,0.06526 -0.0137,0.06526 -0.009,0 -0.0154,0.01908 -0.0193,0.06165 -0.003,0.03391 -0.011,0.06498 -0.0175,0.06904 -0.007,0.0041 -0.0143,0.02828 -0.0172,0.05381 -0.003,0.03007 -0.0101,0.04642 -0.019,0.04642 -0.01,0 -0.0138,0.01362 -0.0138,0.04518 0,0.03347 -0.004,0.04518 -0.0151,0.04518 -0.0114,0 -0.0151,0.01227 -0.0151,0.0502 0,0.03793 -0.004,0.0502 -0.0151,0.0502 -0.0112,0 -0.0151,0.01175 -0.0151,0.0455 0,0.02968 -0.005,0.04737 -0.014,0.05088 -0.008,0.003 -0.017,0.02541 -0.0207,0.04989 -0.004,0.02893 -0.0117,0.04451 -0.0211,0.04451 -0.0104,0 -0.0144,0.01257 -0.0144,0.04518 0,0.03347 -0.004,0.04518 -0.0151,0.04518 -0.0105,0 -0.0151,0.0106 -0.0151,0.03514 0,0.02454 -0.005,0.03514 -0.0151,0.03514 -0.0105,0 -0.0151,0.0106 -0.0151,0.03514 0,0.02304 -0.005,0.03514 -0.0137,0.03514 -0.009,0 -0.0159,0.01587 -0.0194,0.04187 -0.003,0.02303 -0.0127,0.04584 -0.0214,0.0507 -0.009,0.0049 -0.0158,0.02196 -0.0158,0.03846 0,0.01964 -0.005,0.02962 -0.0151,0.02962 -0.01,0 -0.0151,0.01004 -0.0151,0.03012 0,0.02008 -0.005,0.03012 -0.0151,0.03012 -0.0105,0 -0.0151,0.0106 -0.0151,0.03514 0,0.02454 -0.005,0.03514 -0.0151,0.03514 -0.01,0 -0.0151,0.0098 -0.0151,0.02789 0,0.01547 -0.009,0.03555 -0.0201,0.04508 -0.0111,0.0095 -0.0201,0.02627 -0.0201,0.03737 0,0.01124 -0.007,0.02018 -0.0151,0.02018 -0.01,0 -0.0151,0.01004 -0.0151,0.03012 0,0.02008 -0.005,0.03012 -0.0151,0.03012 -0.01,0 -0.0151,0.01004 -0.0151,0.03012 0,0.03199 -0.0233,0.04237 -0.0337,0.01506 z m -7.00457,-1.144605 v -0.256031 h 1.55627 1.55626 v 0.256031 0.25603 h -1.55626 -1.55627 z m -3.27739,0.06097 c -0.004,-0.01893 -0.0111,-0.03597 -0.0168,-0.03787 -0.006,-0.0019 -0.0129,-0.02256 -0.0161,-0.04591 -0.004,-0.02645 -0.0109,-0.04246 -0.0194,-0.04246 -0.01,0 -0.0137,-0.01442 -0.0137,-0.0502 0,-0.03793 -0.004,-0.0502 -0.0151,-0.0502 -0.0112,0 -0.0151,-0.01171 -0.0151,-0.04518 0,-0.03156 -0.004,-0.04518 -0.0137,-0.04518 -0.009,0 -0.0156,-0.01636 -0.019,-0.04642 -0.003,-0.02553 -0.01,-0.04925 -0.0152,-0.05271 -0.005,-0.0035 -0.0132,-0.03453 -0.0171,-0.06904 -0.005,-0.0437 -0.0115,-0.06275 -0.0213,-0.06275 -0.0106,0 -0.0141,-0.01598 -0.0141,-0.06526 0,-0.05132 -0.003,-0.06526 -0.0151,-0.06526 -0.0119,0 -0.0151,-0.01395 -0.0151,-0.06526 0,-0.05132 -0.003,-0.06526 -0.0151,-0.06526 -0.0121,0 -0.0151,-0.01562 -0.0151,-0.08032 0,-0.06092 -0.003,-0.08032 -0.0136,-0.08032 -0.0103,0 -0.015,-0.02625 -0.0191,-0.106714 -0.003,-0.06852 -0.01,-0.109455 -0.0178,-0.11437 -0.008,-0.0052 -0.014,-0.05311 -0.0175,-0.151827 -0.003,-0.08951 -0.009,-0.146887 -0.0162,-0.151335 -0.008,-0.005 -0.0112,-0.118424 -0.0112,-0.384411 0,-0.265987 0.003,-0.37936 0.0112,-0.384411 0.007,-0.0044 0.0131,-0.06182 0.0162,-0.151335 0.003,-0.09872 0.009,-0.146585 0.0175,-0.151827 0.008,-0.0049 0.0143,-0.04585 0.0178,-0.114369 0.004,-0.08047 0.009,-0.106713 0.0191,-0.106713 0.0103,0 0.0136,-0.0194 0.0136,-0.08032 0,-0.0647 0.003,-0.08032 0.0151,-0.08032 0.0121,0 0.0151,-0.01562 0.0151,-0.08032 0,-0.0647 0.003,-0.08032 0.0151,-0.08032 0.0114,0 0.0151,-0.01227 0.0151,-0.0502 0,-0.03583 0.004,-0.0502 0.0138,-0.0502 0.009,0 0.016,-0.01972 0.0208,-0.06264 0.004,-0.03445 0.0118,-0.06552 0.0174,-0.06904 0.006,-0.0035 0.0127,-0.0273 0.0156,-0.05283 0.003,-0.03007 0.0101,-0.04642 0.019,-0.04642 0.009,0 0.0137,-0.01131 0.0137,-0.03012 0,-0.02945 0.001,-0.03012 0.0502,-0.03012 0.0379,0 0.0502,0.0037 0.0502,0.01506 0,0.01113 0.0117,0.01506 0.0447,0.01506 0.0268,0 0.0479,0.0054 0.0527,0.01354 0.004,0.0075 0.0257,0.01632 0.0474,0.01973 0.0216,0.0034 0.0425,0.0112 0.0462,0.01734 0.004,0.0061 0.0267,0.01375 0.051,0.01692 0.0243,0.0032 0.0469,0.0099 0.0502,0.01506 0.003,0.0051 0.0248,0.01181 0.0477,0.01488 l 0.0416,0.0056 v 0.04458 c 0,0.02624 -0.006,0.05077 -0.0151,0.05964 -0.008,0.0083 -0.0151,0.03267 -0.0151,0.05419 0,0.03066 -0.003,0.03788 -0.0151,0.03335 -0.0125,-0.0048 -0.0151,0.0057 -0.0151,0.06056 0,0.0497 -0.003,0.06634 -0.0139,0.06634 -0.01,0 -0.0151,0.01797 -0.0183,0.06104 -0.002,0.03357 -0.009,0.0641 -0.0154,0.06784 -0.006,0.0037 -0.0143,0.04066 -0.0183,0.08204 -0.004,0.04138 -0.0123,0.07845 -0.0184,0.08239 -0.006,0.0041 -0.0126,0.04758 -0.0146,0.102914 -0.003,0.07385 -0.007,0.09576 -0.0176,0.09576 -0.0114,0 -0.0141,0.02661 -0.0141,0.140565 0,0.118254 -0.002,0.140567 -0.0151,0.140567 -0.0131,0 -0.0151,0.0502 -0.0151,0.391575 0,0.341373 0.002,0.391575 0.0151,0.391575 0.0127,0 0.0151,0.02287 0.0151,0.145586 0,0.118119 0.003,0.145585 0.0141,0.145585 0.0108,0 0.0149,0.02131 0.0176,0.09074 0.002,0.051 0.008,0.09387 0.0145,0.09789 0.006,0.0039 0.0141,0.04094 0.0178,0.08222 0.005,0.05001 0.0118,0.07782 0.0216,0.08333 0.0106,0.006 0.0148,0.02645 0.0148,0.07303 0,0.05088 0.003,0.06476 0.0151,0.06476 0.0117,0 0.0151,0.01339 0.0151,0.06024 0,0.04686 0.003,0.06024 0.0151,0.06024 0.0108,0 0.0151,0.01107 0.0151,0.03944 0,0.02169 0.006,0.04548 0.0134,0.05287 0.007,0.0074 0.0161,0.03321 0.0193,0.05739 0.003,0.02418 0.0112,0.04727 0.0178,0.05132 0.007,0.004 0.0143,0.02824 0.0171,0.05378 0.003,0.03007 0.0101,0.04642 0.019,0.04642 0.01,0 0.0138,0.01362 0.0138,0.04518 0,0.03347 0.004,0.04518 0.0151,0.04518 0.008,0 0.0151,0.0089 0.0151,0.02008 0,0.01105 -0.006,0.02008 -0.014,0.02008 -0.008,0 -0.0166,0.0068 -0.0198,0.01506 -0.004,0.0099 -0.0195,0.01506 -0.0462,0.01506 -0.0293,0 -0.0405,0.0042 -0.0405,0.01506 0,0.01051 -0.0106,0.01506 -0.0351,0.01506 -0.0231,0 -0.0351,0.0047 -0.0351,0.01376 0,0.0089 -0.0164,0.0156 -0.0464,0.01899 -0.0255,0.0029 -0.0493,0.0099 -0.0528,0.01557 -0.004,0.0057 -0.0198,0.01372 -0.0363,0.01785 -0.0165,0.0041 -0.0359,0.01352 -0.0433,0.02088 -0.007,0.0074 -0.0289,0.01337 -0.0478,0.01337 -0.0239,0 -0.0344,0.0046 -0.0344,0.01506 0,0.03021 -0.028,0.01443 -0.0343,-0.01935 z m 9.63297,0.01935 c 0,-0.01046 -0.0105,-0.01506 -0.0344,-0.01506 -0.0189,0 -0.0404,-0.006 -0.0478,-0.01337 -0.007,-0.0074 -0.0268,-0.01675 -0.0433,-0.02088 -0.0165,-0.0041 -0.0326,-0.01183 -0.0359,-0.01711 -0.003,-0.0053 -0.0236,-0.01238 -0.0453,-0.01579 -0.0217,-0.0034 -0.043,-0.01228 -0.0474,-0.01973 -0.004,-0.0074 -0.0236,-0.01354 -0.0427,-0.01354 -0.0241,0 -0.0346,-0.0046 -0.0346,-0.01506 0,-0.0109 -0.0112,-0.01506 -0.0405,-0.01506 -0.0267,0 -0.0424,-0.0051 -0.0463,-0.01506 -0.003,-0.0083 -0.0121,-0.01506 -0.0198,-0.01506 -0.008,0 -0.014,-0.009 -0.014,-0.02008 0,-0.01116 0.007,-0.02008 0.0151,-0.02008 0.0112,0 0.0151,-0.01172 0.0151,-0.04518 0,-0.03156 0.004,-0.04518 0.0138,-0.04518 0.009,0 0.0156,-0.01636 0.019,-0.04642 0.003,-0.02553 0.0106,-0.04973 0.0171,-0.05377 0.007,-0.004 0.0145,-0.02714 0.0178,-0.05132 0.003,-0.02418 0.0119,-0.05 0.0193,-0.05739 0.007,-0.0074 0.0134,-0.03117 0.0134,-0.05287 0,-0.02837 0.004,-0.03944 0.0151,-0.03944 0.0117,0 0.0151,-0.01339 0.0151,-0.06024 0,-0.04686 0.003,-0.06024 0.0151,-0.06024 0.0118,0 0.0151,-0.01389 0.0151,-0.06476 0,-0.04658 0.004,-0.06709 0.0148,-0.07304 0.01,-0.0055 0.0171,-0.03332 0.0216,-0.08333 0.004,-0.04128 0.0118,-0.07828 0.0179,-0.08222 0.006,-0.004 0.0126,-0.04689 0.0145,-0.09789 0.003,-0.06942 0.007,-0.09074 0.0176,-0.09074 0.0114,0 0.0141,-0.02747 0.0141,-0.145585 0,-0.122717 0.002,-0.145586 0.0151,-0.145586 0.0131,0 0.0151,-0.04964 0.0151,-0.386556 0,-0.336911 -0.002,-0.386556 -0.0151,-0.386556 -0.0127,0 -0.0151,-0.02287 -0.0151,-0.145585 0,-0.118265 -0.003,-0.145586 -0.0141,-0.145586 -0.0109,0 -0.0149,-0.02191 -0.0176,-0.09576 -0.002,-0.05533 -0.008,-0.09878 -0.0146,-0.102914 -0.006,-0.0039 -0.0144,-0.04101 -0.0184,-0.08239 -0.004,-0.04138 -0.0122,-0.07829 -0.0183,-0.08204 -0.006,-0.0037 -0.013,-0.03427 -0.0154,-0.06784 -0.003,-0.04307 -0.008,-0.06104 -0.0183,-0.06104 -0.0102,0 -0.0138,-0.01572 -0.0138,-0.06024 0,-0.04686 -0.003,-0.06024 -0.0151,-0.06024 -0.0108,0 -0.0151,-0.01107 -0.0151,-0.03944 0,-0.02169 -0.007,-0.04622 -0.0151,-0.05451 -0.009,-0.009 -0.0151,-0.03355 -0.0151,-0.06096 v -0.0459 h 0.0452 c 0.0316,0 0.0452,-0.0041 0.0452,-0.01375 0,-0.0089 0.0164,-0.0156 0.0464,-0.01899 0.0255,-0.0029 0.0498,-0.01074 0.054,-0.01746 0.004,-0.0067 0.0284,-0.01458 0.054,-0.01746 0.0301,-0.0034 0.0464,-0.01007 0.0464,-0.01899 0,-0.0096 0.0136,-0.01376 0.0452,-0.01376 0.0335,0 0.0452,-0.0039 0.0452,-0.01506 0,-0.01138 0.0123,-0.01506 0.0502,-0.01506 0.0491,0 0.0502,7.13e-4 0.0502,0.03012 0,0.02008 0.005,0.03012 0.0151,0.03012 0.0114,0 0.0151,0.01227 0.0151,0.0502 0,0.03668 0.004,0.0502 0.0143,0.0502 0.0101,0 0.0163,0.01885 0.0213,0.06526 0.005,0.04551 0.0112,0.06526 0.0209,0.06526 0.01,0 0.0139,0.01415 0.0139,0.0502 0,0.03793 0.004,0.0502 0.0151,0.0502 0.0121,0 0.0151,0.01562 0.0151,0.08032 0,0.0647 0.003,0.08032 0.0151,0.08032 0.0121,0 0.0151,0.01562 0.0151,0.08032 0,0.06092 0.003,0.08032 0.0136,0.08032 0.0103,0 0.015,0.02625 0.0191,0.106713 0.003,0.06852 0.01,0.109454 0.0178,0.114369 0.008,0.0052 0.014,0.05311 0.0174,0.151827 0.003,0.08951 0.009,0.146887 0.0162,0.151335 0.0158,0.01011 0.0158,0.758696 0,0.768822 -0.007,0.0044 -0.0131,0.06082 -0.0163,0.146379 -0.003,0.09129 -0.009,0.141744 -0.0171,0.146559 -0.007,0.0046 -0.0141,0.04985 -0.0178,0.119327 -0.004,0.08441 -0.009,0.111981 -0.0195,0.111981 -0.0103,0 -0.0136,0.01958 -0.0136,0.08032 0,0.06471 -0.003,0.08032 -0.0151,0.08032 -0.0119,0 -0.0151,0.01395 -0.0151,0.06526 0,0.05132 -0.003,0.06526 -0.0151,0.06526 -0.0119,0 -0.0151,0.01394 -0.0151,0.06526 0,0.04929 -0.003,0.06526 -0.0141,0.06526 -0.01,0 -0.0163,0.01905 -0.0213,0.06275 -0.004,0.03451 -0.0117,0.06558 -0.0171,0.06904 -0.005,0.0035 -0.0123,0.02718 -0.0152,0.05271 -0.003,0.03007 -0.0101,0.04642 -0.019,0.04642 -0.01,0 -0.0138,0.01362 -0.0138,0.04518 0,0.03347 -0.004,0.04518 -0.0151,0.04518 -0.0114,0 -0.0151,0.01227 -0.0151,0.0502 0,0.03578 -0.004,0.0502 -0.0137,0.0502 -0.009,0 -0.0159,0.016 -0.0194,0.04246 -0.003,0.02335 -0.0104,0.04401 -0.0161,0.04591 -0.006,0.0019 -0.0133,0.01894 -0.0168,0.03787 -0.006,0.03378 -0.0343,0.04956 -0.0343,0.01935 z m -6.09452,-1.380555 v -0.261049 h 0.25603 0.25603 v 0.261049 0.261051 h -0.25603 -0.25603 z m 1.03416,0 v -0.261049 h 0.26105 0.26105 v 0.261049 0.261051 h -0.26105 -0.26105 z m 1.0442,0 v -0.261049 h 0.25603 0.25603 v 0.261049 0.261051 h -0.25603 -0.25603 z m -2.07836,-1.03918 v -0.256031 h 0.25603 0.25603 v 0.256031 0.25603 h -0.25603 -0.25603 z m 1.03416,0 v -0.256031 h 0.26105 0.26105 v 0.256031 0.25603 h -0.26105 -0.26105 z m 1.0442,0 v -0.256031 h 0.25603 0.25603 v 0.256031 0.25603 h -0.25603 -0.25603 z m -2.07836,-1.034162 v -0.256029 h 0.25603 0.25603 v 0.256029 0.256031 h -0.25603 -0.25603 z m 1.03416,0 v -0.256029 h 0.26105 0.26105 v 0.256029 0.256031 h -0.26105 -0.26105 z m 1.0442,0 v -0.256029 h 0.25603 0.25603 v 0.256029 0.256031 h -0.25603 -0.25603 z m -2.07836,-1.03918 v -0.26105 h 0.25603 0.25603 v 0.26105 0.26105 h -0.25603 -0.25603 z m 1.03416,0 v -0.26105 h 0.26105 0.26105 v 0.26105 0.26105 h -0.26105 -0.26105 z m 1.0442,0 v -0.26105 h 0.25603 0.25603 v 0.26105 0.26105 h -0.25603 -0.25603 z"
       id="path340" /></g></svg>
