<?xml version="1.0" encoding="UTF-8" standalone="no"?>
<!-- Created with Inkscape (http://www.inkscape.org/) -->

<svg
   width="13.230438mm"
   height="11.577911mm"
   viewBox="0 0 13.230438 11.577911"
   version="1.1"
   id="svg5"
   
   xml:space="preserve"
   inkscape:export-filename="doorlock.svg"
   inkscape:export-xdpi="96"
   inkscape:export-ydpi="96"
   xmlns:inkscape="http://www.inkscape.org/namespaces/inkscape"
   xmlns:sodipodi="http://sodipodi.sourceforge.net/DTD/sodipodi-0.dtd"
   xmlns="http://www.w3.org/2000/svg"
   xmlns:svg="http://www.w3.org/2000/svg"><sodipodi:namedview
     id="namedview7"
     pagecolor="#505050"
     bordercolor="#eeeeee"
     borderopacity="1"
     inkscape:showpageshadow="0"
     inkscape:pageopacity="0"
     inkscape:pagecheckerboard="0"
     inkscape:deskcolor="#505050"
     inkscape:document-units="mm"
     showgrid="false" /><defs
     id="defs2" /><g
     inkscape:label="Layer 1"
     inkscape:groupmode="layer"
     id="layer1"
     transform="translate(-318.6641,-144.14872)"><path
       style="fill:#000000;stroke:none;stroke-width:0.00982856"
       d="m 319.56843,144.14933 v 0.0688 l -0.15726,0.01 v 0.0688 h -0.14743 v 0.0786 h -0.0786 v 0.0688 l -0.14742,0.01 v 0.0786 h -0.0688 v 0.0688 h -0.0786 v 0.14742 h -0.0786 v 0.14743 h -0.0688 l -0.01,0.15726 h -0.0688 v 6.45737 h 0.0688 l 0.01,0.15725 h 0.0688 v 0.14743 h 0.0786 v 0.0786 h 0.0688 c 0.003,0.0579 0.0208,0.0758 0.0786,0.0786 v 0.0786 h 0.0688 c 0.005,0.0537 0.0263,0.0662 0.0786,0.0688 v 0.0688 h 0.0786 v 0.0786 c 0.0677,0 0.14377,-0.0142 0.15726,0.0688 l 0.21623,0.01 v 0.0688 c 1.9804,0 3.96618,0.0478 5.94628,0 v -0.0688 h 0.0688 v -0.22606 l -0.14743,-0.01 v -0.059 l -5.85782,-0.01 v -0.0688 l -0.15726,-0.01 v -0.0688 h -0.0786 v -0.0688 l -0.14743,-0.01 v -0.14743 h -0.0786 v -0.0786 h -0.0688 l -0.01,-0.14743 h -0.0688 v -6.31976 h 0.0688 l 0.01,-0.14743 h 0.0688 l 0.01,-0.14743 h 0.0688 v -0.0786 h 0.0786 v -0.0688 l 0.14743,-0.01 v -0.0688 h 0.14743 v -0.0786 h 0.30468 v -0.0688 h 9.76959 v 0.0688 l 0.30469,0.01 v 0.0688 h 0.14743 v 0.0688 h 0.0786 v 0.0786 h 0.0786 v 0.0786 h 0.0688 v 0.0688 c 0.0877,0.008 0.0786,0.0755 0.0786,0.14743 0.0913,0.008 0.0786,0.0836 0.0786,0.15726 h 0.0688 v 4.96342 h 0.0688 c 0.006,0.11694 0.23019,0.11694 0.23589,0 h 0.0688 v -4.96342 h -0.0688 v -0.22606 h -0.0786 v -0.14743 h -0.0688 l -0.01,-0.14743 h -0.0688 v -0.0786 h -0.0786 v -0.0786 h -0.0688 v -0.0688 h -0.0786 v -0.0786 h -0.0786 v -0.0688 l -0.14743,-0.01 v -0.0688 l -0.22606,-0.01 v -0.0688 h -10.44776 m 0.59954,1.13029 v 0.0688 h -0.0786 v 0.0786 h -0.14743 v 0.0786 h -0.0688 l -0.01,0.14743 h -0.0688 l -0.01,0.22606 h -0.0688 v 0.52091 h 0.0688 l 0.01,0.22606 h 0.0688 v 0.0786 h 0.0786 v 0.0786 h 0.0688 v 0.0688 h 0.0786 v 0.0786 h 0.15726 v 0.0688 h 5.03222 v -0.0688 h 0.14743 v -0.0688 l 0.14743,-0.01 c 0.005,-0.054 0.0246,-0.0737 0.0786,-0.0786 v -0.1376 c 0.0952,-0.005 0.0786,-0.0812 0.0786,-0.15726 h 0.0688 v -0.67817 h -0.0688 v -0.21623 c -0.054,-0.005 -0.0737,-0.0246 -0.0786,-0.0786 h -0.0688 v -0.0786 h -0.0786 v -0.0688 l -0.14743,-0.01 v -0.0688 h -5.18948 m 5.11085,0.37348 v 0.0688 c 0.0579,0.003 0.0758,0.0208 0.0786,0.0786 h 0.0688 v 0.60937 h -0.0688 l -0.01,0.14743 h -0.1376 v 0.0688 h -4.89462 v -0.0688 h -0.0786 v -0.0786 h -0.0688 c -0.004,-0.0491 -0.0192,-0.0706 -0.0688,-0.0786 l -0.01,-0.52091 h 0.0688 l 0.01,-0.14743 c 0.054,-0.005 0.0737,-0.0246 0.0786,-0.0786 h 5.03222 m 1.87726,1.27772 v 0.0688 l -0.14743,0.01 v 0.0688 c -0.0917,0.004 -0.0786,0.0729 -0.0786,0.14743 h -0.0688 v 2.03451 h 0.29486 l 0.01,-0.15726 h 0.059 l 0.01,-1.79862 h 2.25074 l 0.01,0.14743 h 0.0688 v 1.80845 h 0.29486 c 0.0215,-0.51972 0.01,-1.04222 0.01,-1.56274 0,-0.10681 0.0579,-0.46511 -0.0786,-0.47177 v -0.14743 h -0.0786 v -0.0688 l -0.14743,-0.01 v -0.0688 h -2.408 m -6.76205,0.45211 v 0.0688 l -0.22606,0.01 v 0.0688 h -0.0786 v 0.0786 h -0.0786 v 0.0688 h -0.0688 v 0.0786 h -0.0786 v 0.14743 h -0.0688 l -0.01,0.23589 h -0.0688 v 0.29486 h 0.0688 l 0.01,0.22605 h 0.0688 v 0.14743 h 0.0786 v 0.0786 h 0.0688 v 0.0688 h 0.0786 v 0.0786 h 0.14743 c 0.005,0.0953 0.081,0.0786 0.15725,0.0786 h 0.45211 v -0.0688 l 0.14743,-0.01 v -0.0688 c 0.0579,-0.003 0.0758,-0.0207 0.0786,-0.0786 h 0.0688 c 0.005,-0.054 0.0246,-0.0737 0.0786,-0.0786 v -0.0786 h 0.0688 l 0.01,-0.22606 h 0.0688 v -0.44228 h -0.0688 l -0.01,-0.22606 H 321.22 v -0.0786 h -0.0688 l -0.01,-0.14743 h -0.0786 v -0.0688 l -0.14742,-0.01 v -0.0688 l -0.22606,-0.01 v -0.0688 h -0.29486 m 2.25074,0 v 0.0688 l -0.22605,0.01 v 0.0688 l -0.14743,0.01 v 0.0688 h -0.0688 c -0.005,0.054 -0.0246,0.0737 -0.0786,0.0786 l -0.01,0.14743 h -0.0688 v 0.14743 h -0.0688 v 0.59954 h 0.0688 v 0.15726 h 0.0786 v 0.0786 h 0.0688 l 0.01,0.1376 0.1376,0.01 v 0.0688 c 0.0525,0.003 0.0796,0.0145 0.0885,0.0688 l 0.66834,0.01 v -0.0786 h 0.14742 c 0.005,-0.054 0.0246,-0.0737 0.0786,-0.0786 v -0.0688 h 0.0786 v -0.0786 h 0.0688 v -0.14743 h 0.0786 v -0.74697 c -0.0913,-0.008 -0.0786,-0.0836 -0.0786,-0.15726 h -0.0688 c -0.003,-0.0579 -0.0208,-0.0758 -0.0786,-0.0786 v -0.0688 h -0.0688 c -0.003,-0.0635 -0.0271,-0.0772 -0.0885,-0.0786 v -0.0688 l -0.21623,-0.01 v -0.0688 h -0.30469 m 2.18194,0 v 0.0688 l -0.21622,0.01 v 0.0688 c -0.0614,0.002 -0.0854,0.0151 -0.0885,0.0786 h -0.0688 v 0.0688 c -0.0579,0.003 -0.0758,0.0208 -0.0786,0.0786 h -0.0688 l -0.01,0.14743 h -0.0688 v 0.7568 h 0.0688 l 0.01,0.14743 h 0.0688 v 0.0786 h 0.0786 v 0.0688 c 0.054,0.005 0.0737,0.0246 0.0786,0.0786 0.072,0 0.13942,-0.009 0.14743,0.0786 l 0.66834,-0.01 v -0.0688 h 0.0786 v -0.0688 h 0.0786 v -0.0786 h 0.0786 v -0.0688 h 0.0688 c 0.003,-0.0577 0.0195,-0.0831 0.0786,-0.0885 v -0.21623 h 0.0688 v -0.52091 h -0.0688 v -0.15726 c -0.0876,-0.008 -0.0786,-0.0754 -0.0786,-0.14743 -0.054,-0.005 -0.0737,-0.0246 -0.0786,-0.0786 h -0.0688 v -0.0688 l -0.14742,-0.01 v -0.0688 l -0.22606,-0.01 v -0.0688 h -0.30469 m -4.13782,0.37348 c 0.008,0.0876 0.0754,0.0786 0.14743,0.0786 0.005,0.054 0.0246,0.0737 0.0786,0.0786 0,0.072 -0.009,0.13943 0.0786,0.14743 v 0.44228 c -0.0592,0.005 -0.0758,0.0308 -0.0786,0.0885 h -0.0688 v 0.0688 h -0.0786 v 0.0786 h -0.15726 v 0.0688 h -0.0688 v -0.0688 h -0.22606 v -0.0786 h -0.0786 v -0.0786 h -0.0688 l -0.01,-0.14742 h -0.0688 c 0,-0.0845 -0.0434,-0.29418 0.0688,-0.30469 l 0.01,-0.14743 h 0.0688 v -0.0786 h 0.0786 v -0.0688 h 0.0786 v -0.0786 h 0.29486 m 2.25074,0.01 c 0.009,0.0543 0.036,0.0663 0.0885,0.0688 v 0.0688 h 0.0688 v 0.0786 h 0.0786 v 0.59954 h -0.0786 v 0.0786 h -0.0786 v 0.0786 h -0.22606 v 0.0688 h -0.0688 v -0.0688 l -0.22606,-0.01 v -0.0688 h -0.0786 V 148.512 h -0.0688 v -0.46194 h 0.0688 c 0,-0.0746 -0.0131,-0.14295 0.0786,-0.14743 v -0.0688 l 0.14743,-0.01 v -0.0688 l 0.29486,0.01 m 2.19177,-0.01 v 0.0688 l 0.14743,0.01 v 0.0786 h 0.0786 v 0.14743 h 0.0688 v 0.44228 h -0.0688 l -0.01,0.15726 h -0.1376 c -0.005,0.0952 -0.0812,0.0786 -0.15726,0.0786 v 0.0688 h -0.0688 v -0.0688 c -0.0855,0 -0.23027,0.0364 -0.23589,-0.0786 h -0.0688 v -0.0786 h -0.0786 v -0.22606 h -0.0688 v -0.14742 h 0.0688 v -0.22606 h 0.0688 c 0.003,-0.0579 0.0208,-0.0758 0.0786,-0.0786 v -0.0688 c 0.0525,-0.003 0.0796,-0.0145 0.0885,-0.0688 l 0.29486,-0.01 m 2.92891,0.45212 v 0.0688 l -0.14743,0.01 v 0.0688 h -0.0786 v 0.0786 h -0.0688 c -0.005,0.054 -0.0246,0.0737 -0.0786,0.0786 l -0.01,0.22606 h -0.059 l -0.01,3.15497 h -0.0688 l -0.01,-0.14743 h -0.0688 v -0.0786 h -0.0786 v -0.0786 h -0.0688 l -0.01,-0.14743 h -0.0688 v -0.0688 c -0.054,-0.005 -0.0737,-0.0246 -0.0786,-0.0786 h -0.0786 v -0.0786 h -0.14742 v -0.0688 h -0.59955 v 0.0688 h -0.14742 l -0.01,0.14743 h -0.0688 l 0.01,0.52091 c 0.0829,0.0135 0.0688,0.0896 0.0688,0.15726 h 0.0688 l 0.01,0.15725 h 0.0688 v 0.14743 h 0.0688 l 0.01,0.22606 h 0.0688 l 0.01,0.14743 h 0.0688 v 0.15725 h 0.0688 l 0.01,0.21623 h 0.0688 l 0.01,0.15726 h 0.0688 v 0.14743 h 0.0688 l 0.01,0.22606 h 0.0688 v 0.14742 h 0.0786 v 0.15726 h 0.0688 l 0.01,0.21623 h 0.0688 c 0,0.0761 -0.0166,0.15264 0.0786,0.15725 v 0.14743 h 0.0688 l 0.01,0.14743 h 0.0688 l 0.01,0.14743 h 0.0688 v 0.0786 h 0.0688 l 0.01,0.14743 h 0.0688 v 0.0786 h 0.0786 v 0.0786 h 0.0786 v 0.0688 h 0.0688 v 0.0786 h 0.0786 v 0.0688 l 0.14743,0.01 v 0.0688 c 0.054,0.005 0.0737,0.0246 0.0786,0.0786 h 0.14742 v 0.0688 l 0.22606,0.01 v 0.0688 l 0.22606,0.01 v 0.0688 h 1.42514 v -0.0688 l 0.30468,-0.01 v -0.0688 h 0.14743 c 0.008,-0.0913 0.0836,-0.0786 0.15726,-0.0786 v -0.0688 l 0.14743,-0.01 v -0.0688 c 0.0579,-0.003 0.0758,-0.0207 0.0786,-0.0786 h 0.1376 c 0.005,-0.0541 0.0246,-0.0737 0.0786,-0.0786 v -0.0688 h 0.0786 v -0.0786 h 0.0688 l 0.01,-0.14742 h 0.0688 v -0.0786 h 0.0786 v -0.14743 h 0.0786 v -0.14743 h 0.0688 c 0,-0.0736 -0.0127,-0.1489 0.0786,-0.15726 v -0.22605 h 0.0688 l 0.01,-0.30469 h 0.0688 v -2.46697 c -0.0541,-0.005 -0.0737,-0.0246 -0.0786,-0.0786 h -0.0688 v -0.0786 h -0.0786 v -0.0688 l -0.14743,-0.01 v -0.0688 h -0.45211 v 0.0688 h -0.14743 c -0.003,-0.0523 -0.015,-0.0736 -0.0688,-0.0786 -0.005,-0.0537 -0.0263,-0.0663 -0.0786,-0.0688 v -0.0688 l -0.15726,-0.01 v -0.0688 h -0.52091 v 0.0688 l -0.15726,0.01 v -0.0786 h -0.0786 v -0.0688 l -0.14743,-0.01 v -0.0688 l -0.14742,-0.01 v -0.0688 h -0.37349 v 0.0688 l -0.13838,-0.009 -0.0189,-0.1283 v -0.344 -1.54309 h -0.0688 c 0,-0.0687 0.018,-0.14912 -0.0688,-0.15725 l -0.01,-0.1376 -0.14743,-0.01 v -0.0688 h -0.0786 v -0.0786 h -0.59955 m 0.52092,0.38331 0.01,0.1376 h 0.0688 v 3.1648 h 0.0688 c 0.0105,0.11486 0.22537,0.11486 0.23588,0 h 0.0688 l 0.01,-0.7568 h 0.0688 v -0.0688 h 0.0786 v -0.0786 h 0.29485 v 0.0688 l 0.14743,0.01 0.01,0.14743 h 0.0688 v 0.45211 c 0,0.0738 -0.0127,0.14891 0.0786,0.15726 v 0.0688 c 0.0676,0 0.14379,0.0141 0.15726,-0.0688 h 0.0688 v -0.38332 h 0.0688 l 0.01,-0.14743 h 0.0688 v -0.0786 h 0.38332 v 0.0688 c 0.0579,0.003 0.0758,0.0207 0.0786,0.0786 h 0.0688 v 0.53074 h 0.0786 v 0.0688 h 0.21622 v -0.0688 h 0.0786 v -0.38332 h 0.0786 v -0.0688 h 0.29486 c 0.005,0.054 0.0246,0.0737 0.0786,0.0786 v 2.31954 h -0.0688 l -0.01,0.30469 h -0.0688 c 0,0.0761 0.0166,0.15264 -0.0786,0.15725 v 0.14743 h -0.0688 l -0.01,0.14743 h -0.0688 l -0.01,0.14743 h -0.0688 v 0.0786 h -0.0786 v 0.0786 h -0.0688 v 0.0688 h -0.0786 v 0.0786 h -0.14743 v 0.0786 h -0.14743 c -0.005,0.0917 -0.0728,0.0786 -0.14743,0.0786 v 0.0688 l -0.22606,0.01 c -0.011,0.11814 -0.29161,0.0688 -0.38331,0.0688 v 0.0688 h -0.59954 v -0.0688 l -0.45211,-0.01 v -0.0688 h -0.22606 v -0.0688 l -0.14743,-0.01 v -0.0688 h -0.0786 v -0.0688 l -0.14743,-0.01 v -0.0688 h -0.0786 v -0.0786 h -0.0786 v -0.0786 h -0.0688 c -0.005,-0.054 -0.0246,-0.0737 -0.0786,-0.0786 v -0.1376 c -0.0579,-0.003 -0.0758,-0.0207 -0.0786,-0.0786 h -0.0688 c 0,-0.0736 0.0127,-0.14891 -0.0786,-0.15726 v -0.14743 h -0.0688 l -0.01,-0.14743 h -0.0688 v -0.15725 h -0.0688 l -0.01,-0.21623 h -0.0688 l -0.01,-0.15726 h -0.0688 c 0,-0.0676 0.0141,-0.14379 -0.0688,-0.15726 l -0.01,-0.21623 h -0.0688 l -0.01,-0.14742 h -0.0688 v -0.15726 h -0.0688 l -0.01,-0.21623 h -0.0688 l -0.01,-0.15726 h -0.0688 v -0.15725 h -0.0688 l -0.01,-0.21623 h -0.0688 v -0.14743 h -0.0786 v -0.22606 h -0.0688 v -0.15725 h 0.0688 v -0.0786 l 0.30469,0.01 v 0.0688 h 0.0688 v 0.0786 h 0.0786 v 0.0786 h 0.0786 v 0.0786 h 0.0688 c 0,0.072 -0.009,0.13943 0.0786,0.14743 v 0.14743 h 0.0786 v 0.0786 h 0.0688 l 0.01,0.1376 h 0.0688 v 0.0884 h 0.0688 l 0.01,0.1376 h 0.0688 v 0.0786 c 0.0579,0.003 0.0758,0.0207 0.0786,0.0786 h 0.0786 v 0.0688 h 0.1376 v -0.0688 h 0.0786 l 0.01,-3.98057 h 0.0688 v -0.0786 h 0.0688 c 0.007,-0.14243 0.34773,-0.0731 0.45211,-0.0688 m -8.33462,0.97303 v 0.0688 l -0.14743,0.01 v 0.0688 h -0.0786 v 0.0786 h -0.0786 v 0.0786 h -0.0688 l -0.01,0.14743 h -0.0688 l -0.01,0.29485 h -0.0688 v 0.22606 h 0.0688 l 0.01,0.29485 h 0.0688 v 0.0885 h 0.0688 l 0.01,0.1376 c 0.054,0.005 0.0737,0.0246 0.0786,0.0786 l 0.14743,0.01 v 0.0688 h 0.14743 v 0.0688 h 0.45211 v -0.0688 h 0.15726 v -0.0688 l 0.1376,-0.01 v -0.0688 h 0.0786 v -0.0786 h 0.0786 v -0.14743 h 0.0688 l 0.01,-0.22606 h 0.0688 v -0.38331 h -0.0688 l -0.01,-0.22606 h -0.0688 c 0,-0.0746 0.0131,-0.14294 -0.0786,-0.14743 v -0.0688 h -0.0688 v -0.0786 h -0.0786 v -0.0688 l -0.15725,-0.01 v -0.0688 h -0.58972 m 2.25075,0 v 0.0688 l -0.14743,0.01 v 0.0688 h -0.0786 v 0.0786 h -0.0786 v 0.0688 h -0.0688 v 0.0786 h -0.0786 v 0.22606 h -0.0688 v 0.53074 h 0.0688 v 0.21623 h 0.0786 v 0.0786 h 0.0688 c 0.003,0.0579 0.0208,0.0758 0.0786,0.0786 v 0.0688 h 0.0786 v 0.0786 h 0.21623 c 0.007,0.14242 0.34769,0.0731 0.45211,0.0688 v -0.0688 h 0.15726 v -0.0786 h 0.0786 v -0.0688 h 0.0688 c 0.005,-0.054 0.0246,-0.0737 0.0786,-0.0786 v -0.0688 h 0.0688 l 0.01,-0.15726 h 0.0688 v -0.67817 h -0.0688 l -0.01,-0.14743 h -0.0688 l -0.01,-0.14742 h -0.0688 v -0.0786 h -0.14742 c -0.004,-0.0917 -0.0729,-0.0786 -0.14743,-0.0786 v -0.0688 h -0.53075 m 2.25074,0 v 0.0688 h -0.14742 v 0.0786 h -0.14743 v 0.0786 h -0.0688 l -0.01,0.14742 h -0.0688 c -0.005,0.054 -0.0246,0.0737 -0.0786,0.0786 v 0.74697 h 0.0688 l 0.01,0.15726 h 0.0688 l 0.01,0.1376 0.1376,0.01 v 0.0688 h 0.0786 v 0.0786 h 0.15726 v 0.0688 h 0.45212 v -0.0688 h 0.21623 v -0.0786 h 0.0786 v -0.0688 c 0.0579,-0.003 0.0758,-0.0208 0.0786,-0.0786 h 0.0688 l 0.01,-0.14743 h 0.0688 v -0.15726 h 0.0688 v -0.52091 h -0.0688 l -0.01,-0.22606 h -0.0688 v -0.0786 h -0.0688 v -0.0688 h -0.0786 v -0.0786 h -0.0786 v -0.0688 l -0.14743,-0.01 v -0.0688 h -0.53074 m -3.98057,0.37348 v 0.0786 h 0.0786 v 0.0688 h 0.0688 l 0.01,0.14743 h 0.0688 v 0.38331 h -0.0688 l -0.01,0.14743 h -0.0688 c -0.003,0.0579 -0.0208,0.0758 -0.0786,0.0786 v 0.0688 h -0.38331 v -0.0688 h -0.1376 v -0.0786 h -0.0786 l -0.01,-0.21623 c -0.11891,-0.0111 -0.0625,-0.22052 -0.059,-0.30468 0.0829,-0.0135 0.0688,-0.0896 0.0688,-0.15726 h 0.0688 v -0.0688 h 0.0786 v -0.0786 h 0.45211 m 2.25075,0 c 0.005,0.054 0.0246,0.0737 0.0786,0.0786 v 0.0786 h 0.0688 l 0.01,0.29486 h 0.0688 v 0.0688 h -0.0688 v 0.23588 h -0.0786 v 0.1376 l -0.14742,0.01 v 0.0688 h -0.37349 v -0.0688 h -0.0786 v -0.0786 h -0.0786 v -0.0786 h -0.0688 v -0.52091 h 0.0688 v -0.0786 h 0.0786 v -0.0786 h 0.0688 v -0.0688 h 0.45211 m 2.18195,0 v 0.0688 h 0.0786 v 0.0786 h 0.0786 v 0.0786 h 0.0688 v 0.45211 h -0.0688 v 0.14743 h -0.0786 v 0.0786 h -0.0786 v 0.0688 h -0.37349 v -0.0688 l -0.14743,-0.01 -0.01,-0.1376 h -0.0688 v -0.15725 h -0.0688 v -0.22606 h 0.0688 v -0.21623 c 0.054,-0.005 0.0737,-0.0246 0.0786,-0.0786 0.054,-0.005 0.0737,-0.0246 0.0786,-0.0786 z"
       id="path455" /></g></svg>
