<svg width="44" height="38" viewBox="0 0 44 38"  xmlns="http://www.w3.org/2000/svg">
<path d="M5.88884 0.413473L5.08708 1.26362C4.45397 1.93491 4.09772 2.11377 3.39436 2.11377C2.7052 2.11377 2.31637 2.30082 1.67742 2.93976L0.851929 3.7657V13.3727C0.851929 22.2148 0.884887 22.9979 1.27036 23.2136C1.53604 23.3624 1.84689 23.3639 2.12052 23.2173C2.52222 23.0023 2.55225 22.3453 2.55225 13.652C2.55225 4.67172 2.56987 4.30783 3.02193 4.06593C4.31455 3.37414 4.25257 2.71081 4.25257 17.1979C4.25257 29.0819 4.297 30.6755 4.64965 31.4186C5.15395 32.4813 6.08638 32.9628 7.64088 32.9628H8.86773V33.813V34.6632H5.98231C3.9026 34.6632 3.02362 34.5743 2.83358 34.3453C2.68858 34.1706 2.53891 32.8977 2.50053 31.5168C2.44416 29.4886 2.35307 28.9576 2.02612 28.7519C1.73287 28.5674 1.51544 28.5851 1.23669 28.8164C0.928539 29.0722 0.851929 29.6649 0.851929 31.7939C0.851929 36.0472 1.16196 36.3505 5.51927 36.3578C8.35535 36.3624 8.62896 36.4035 8.86773 36.8493C9.01083 37.1164 9.34136 37.3347 9.6026 37.3347C9.86397 37.3347 10.2143 37.116 10.3811 36.8488C10.6793 36.3714 10.9509 36.3633 26.1115 36.3578C40.3612 36.3532 41.5777 36.3204 42.0563 35.9327C42.3412 35.7019 42.6965 35.2743 42.8457 34.9825C43.0371 34.6082 43.1171 29.9308 43.1171 19.1088V3.76564L42.2911 2.93965L41.4652 2.11371H28.2269H14.9887L14.1385 1.26351L13.2884 0.413361H9.58837L5.88884 0.413473ZM9.85074 2.11377C12.4559 2.11377 12.7616 2.15988 12.9886 2.58395C13.1533 2.89192 13.24 7.78137 13.24 16.7762C13.24 28.9275 13.1961 30.5427 12.8581 30.8807C12.5556 31.1833 11.9128 31.2605 9.76107 31.255C8.26764 31.2514 6.85469 31.136 6.62089 30.9998C6.22371 30.7685 6.1958 29.8214 6.1958 16.5808C6.1958 3.88204 6.23582 2.39347 6.58008 2.26136C6.7914 2.18029 8.26321 2.11377 9.85074 2.11377ZM40.2269 3.77663C40.4009 3.76671 40.6341 3.89878 40.9466 4.06604C41.4033 4.31044 41.4168 4.7344 41.4168 19.1986C41.4168 30.4492 41.3453 34.1512 41.125 34.3715C40.9045 34.592 37.1468 34.6633 25.7006 34.6633H10.5681V33.8131V32.9629L11.7218 32.9621C13.0848 32.9611 14.3559 32.2811 14.7031 31.368C14.8466 30.9905 14.9403 25.4392 14.9403 17.2796V3.81462H15.7905H16.6406V10.567C16.6406 15.4953 16.7192 17.3985 16.9319 17.6112C17.3515 18.0307 39.0052 18.0307 39.4247 17.6112C39.6374 17.3985 39.7164 15.4953 39.7164 10.567C39.7164 5.11171 39.7051 3.80629 40.2269 3.77668V3.77663ZM18.5839 3.81406H28.1785H37.7732V10.0081V16.2021H28.1785H18.5839V10.0081V3.81406ZM28.1785 5.5106C24.6254 5.5106 21.0721 5.59601 20.7539 5.76633C20.3189 5.99911 20.2842 6.31086 20.2842 9.96826C20.2842 12.7172 20.3727 14.0077 20.5755 14.2105C20.992 14.627 35.3646 14.627 35.7811 14.2105C35.9839 14.0077 36.0729 12.7172 36.0729 9.96826C36.0729 6.31086 36.0377 5.99911 35.6028 5.76633C35.2845 5.59601 31.7317 5.5106 28.1785 5.5106ZM21.9845 7.45761H28.1785H34.3726V10.0081V12.5586H28.1785H21.9845V10.0081V7.45761ZM26.3449 20.5891C25.7916 20.6223 25.3133 21.2013 25.657 21.8435C25.98 22.447 27.0117 22.4033 27.2102 21.7776C27.2971 21.504 27.2365 21.1214 27.0755 20.9274C26.8633 20.6717 26.5964 20.574 26.3449 20.5891V20.5891ZM19.3937 20.5974C19.0883 20.5747 18.7692 20.7138 18.5753 21.0761C18.3762 21.4482 18.3818 21.6673 18.5966 21.9262C19.0331 22.4522 19.9804 22.3626 20.166 21.7777C20.3738 21.123 19.9027 20.6353 19.3937 20.5974H19.3937ZM38.2054 20.6029C37.8972 20.601 37.5041 20.6111 36.9961 20.627C34.6836 20.7 34.1045 20.9841 34.4475 21.8781C34.5738 22.207 34.9937 22.2757 36.8856 22.2757C39.4267 22.2757 39.9842 22.0153 39.4769 21.0673C39.2884 20.7151 39.13 20.6077 38.2054 20.6028V20.6029ZM31.7708 20.6138C31.7306 20.6129 31.6894 20.6147 31.648 20.6211C30.922 20.7296 30.5526 21.4065 30.9549 21.8912C31.3526 22.3704 32.0347 22.3868 32.4165 21.9268C32.8124 21.4498 32.3738 20.6327 31.7708 20.6141V20.6138ZM22.8907 20.6574C22.1823 20.6966 21.6342 21.6014 22.1577 22.1248C22.2529 22.2196 22.6081 22.2654 22.9471 22.2258C23.7787 22.1289 23.976 20.9431 23.2014 20.6973C23.0963 20.664 22.9918 20.6518 22.8907 20.6574ZM26.4739 24.2189C25.7625 24.2189 25.334 24.884 25.657 25.4875C26.1444 26.3982 27.5263 25.7118 27.2102 24.7161C27.1093 24.3981 26.844 24.2189 26.4739 24.2189ZM19.3562 24.2207C19.0762 24.2253 18.7876 24.3374 18.5967 24.5676C18.3818 24.8265 18.3762 25.0456 18.5754 25.4177C19.0925 26.3839 20.4991 25.7636 20.1666 24.716C20.0622 24.3871 19.7163 24.2149 19.3563 24.2207H19.3562ZM37.7073 24.2582C37.4445 24.2564 37.152 24.2609 36.8282 24.271C34.8113 24.3309 34.4882 24.3985 34.4157 24.7768C34.3698 25.017 34.4639 25.3722 34.625 25.5662C34.8405 25.8258 35.4841 25.9191 37.0654 25.9191C38.9868 25.9191 39.2416 25.8662 39.4816 25.4177C39.9366 24.5676 39.5471 24.2683 37.7073 24.2582V24.2582ZM31.7917 24.26C31.4709 24.2375 31.1198 24.3772 30.8894 24.7449C30.706 25.0374 30.7241 25.2562 30.9548 25.5343C31.4 26.0707 32.1182 26.0141 32.4374 25.4176C32.7759 24.785 32.3264 24.2975 31.7917 24.26H31.7917ZM22.838 24.3402C22.0319 24.3402 21.7301 24.9554 22.2369 25.5661C22.8089 26.2553 23.7713 25.8136 23.645 24.9199C23.5794 24.4565 23.4177 24.3402 22.838 24.3402ZM1.70209 25.3113C0.899264 25.3113 0.598524 25.9282 1.10432 26.5377C1.26531 26.7316 1.53441 26.8902 1.70209 26.8902C2.15201 26.8902 2.60456 26.249 2.50812 25.7482C2.44964 25.4447 2.20399 25.3113 1.70209 25.3113ZM19.3007 27.6336C18.7475 27.6668 18.2691 28.2457 18.6128 28.8879C18.9358 29.4915 19.9675 29.4477 20.1661 28.822C20.2529 28.5484 20.1923 28.1659 20.0313 27.9719C19.8191 27.7162 19.5522 27.6185 19.3007 27.6336V27.6336ZM26.3449 27.6336C25.7916 27.6668 25.3133 28.2457 25.657 28.8879C25.98 29.4915 27.0117 29.4477 27.2102 28.822C27.2971 28.5484 27.2365 28.1659 27.0755 27.9719C26.8633 27.7162 26.5964 27.6185 26.3449 27.6336V27.6336ZM38.2054 27.6469C37.8972 27.6451 37.5041 27.6551 36.9961 27.6711C34.6836 27.7441 34.1045 28.0282 34.4475 28.9222C34.5738 29.2511 34.9937 29.3197 36.8856 29.3197C39.4267 29.3197 39.9842 29.0594 39.4769 28.1114C39.2884 27.7592 39.13 27.6518 38.2054 27.647V27.6469ZM31.7708 27.6578C31.7306 27.6569 31.6894 27.6597 31.648 27.6652C30.922 27.7736 30.5526 28.4501 30.9549 28.9347C31.3526 29.414 32.0347 29.4303 32.4165 28.9703C32.8124 28.4933 32.3738 27.6762 31.7708 27.6576V27.6578ZM22.8907 27.7014C22.1823 27.7406 21.6342 28.6454 22.1577 29.1688C22.2529 29.2636 22.6081 29.3094 22.9471 29.2699C23.7787 29.1729 23.976 27.9871 23.2014 27.7413C23.0963 27.7079 22.9918 27.6958 22.8907 27.7014ZM26.4739 31.2629C25.7625 31.2629 25.334 31.9279 25.657 32.5315C26.1444 33.4421 27.5263 32.7559 27.2102 31.7601C27.1093 31.4421 26.844 31.2629 26.4739 31.2629ZM19.3088 31.2843C18.7411 31.2687 18.3102 31.9657 18.6019 32.5106C18.898 33.064 19.6266 33.0981 20.0579 32.5785C20.4428 32.1147 20.1047 31.4308 19.4241 31.2971C19.3851 31.2898 19.3466 31.2853 19.3088 31.2842V31.2843ZM37.7073 31.3023C37.4445 31.3004 37.152 31.3051 36.8282 31.3152C34.8113 31.375 34.4882 31.4426 34.4157 31.8209C34.3698 32.0611 34.4639 32.4163 34.625 32.6103C34.8405 32.87 35.4841 32.9633 37.0654 32.9633C38.9868 32.9633 39.2416 32.9103 39.4816 32.4618C39.9366 31.6118 39.5471 31.3124 37.7073 31.3023V31.3023ZM31.7917 31.3041C31.4709 31.2816 31.1198 31.4213 30.8894 31.789C30.706 32.0815 30.7241 32.3004 30.9548 32.5784C31.4 33.1148 32.1182 33.0582 32.4374 32.4617C32.7759 31.8292 32.3264 31.3415 31.7917 31.3041H31.7917ZM22.838 31.3842C22.0319 31.3842 21.7301 31.9995 22.2369 32.6102C22.8089 33.2993 23.7713 32.8577 23.645 31.964C23.5794 31.5006 23.4177 31.3842 22.838 31.3842Z" fill="black"/>
</svg>
