<svg width="42" height="38" viewBox="0 0 42 38" fill="none" xmlns="http://www.w3.org/2000/svg">
<path d="M40.3427 26.9396H12.4628L13.8627 24.0709L37.1216 24.0285C37.9081 24.0285 38.5823 23.4632 38.7228 22.6813L41.9438 4.54097C42.0281 4.0652 41.9017 3.57531 41.5927 3.20317C41.44 3.02003 41.2495 2.8725 41.0344 2.77083C40.8194 2.66915 40.5849 2.61576 40.3473 2.61435L10.7587 2.51543L10.5059 1.31895C10.3467 0.555845 9.66314 0 8.88597 0H1.65266C1.21435 0 0.793986 0.17519 0.484053 0.48703C0.174119 0.79887 0 1.22182 0 1.66282C0 2.10383 0.174119 2.52678 0.484053 2.83862C0.793986 3.15046 1.21435 3.32565 1.65266 3.32565H7.54699L8.65188 8.61088L11.372 21.8617L7.87003 27.6132C7.68816 27.8602 7.57863 28.1535 7.55381 28.4598C7.52898 28.7662 7.58987 29.0734 7.72957 29.3467C8.01048 29.9073 8.57697 30.2606 9.20433 30.2606H12.1445C11.5177 31.0982 11.1791 32.1185 11.18 33.167C11.18 35.8331 13.3336 38 15.9835 38C18.6334 38 20.787 35.8331 20.787 33.167C20.787 32.1165 20.4405 31.0943 19.8225 30.2606H27.3648C26.738 31.0982 26.3995 32.1185 26.4004 33.167C26.4004 35.8331 28.554 38 31.2039 38C33.8538 38 36.0074 35.8331 36.0074 33.167C36.0074 32.1165 35.6609 31.0943 35.0429 30.2606H40.3473C41.2556 30.2606 42 29.5163 42 28.5977C41.9973 28.1572 41.8215 27.7356 41.511 27.425C41.2005 27.1143 40.7805 26.9399 40.3427 26.9396ZM11.4469 5.79398L38.4044 5.88348L35.7639 20.7594L14.5883 20.7971L11.4469 5.79398ZM15.9835 34.6555C15.1689 34.6555 14.5041 33.9866 14.5041 33.167C14.5041 32.3473 15.1689 31.6784 15.9835 31.6784C16.7981 31.6784 17.4629 32.3473 17.4629 33.167C17.4629 33.5618 17.3071 33.9404 17.0296 34.2195C16.7522 34.4987 16.3759 34.6555 15.9835 34.6555ZM31.2039 34.6555C30.3893 34.6555 29.7244 33.9866 29.7244 33.167C29.7244 32.3473 30.3893 31.6784 31.2039 31.6784C32.0185 31.6784 32.6833 32.3473 32.6833 33.167C32.6833 33.5618 32.5274 33.9404 32.25 34.2195C31.9725 34.4987 31.5963 34.6555 31.2039 34.6555Z" fill="black"/>
</svg>
