<svg width="37" height="34" viewBox="0 0 37 34" fill="none" xmlns="http://www.w3.org/2000/svg">
<path d="M24.4572 21.4121C22.7793 20.0109 20.6642 19.2406 18.4781 19.2346C16.2921 19.2286 14.1728 19.9872 12.4871 21.3792V21.4121M30.171 14.917C26.8711 12.1946 22.7265 10.7057 18.4486 10.7057C14.1706 10.7057 10.0261 12.1946 6.72614 14.917M35.8037 8.09932C30.9184 4.0525 24.7736 1.83801 18.4299 1.83801C12.0861 1.83801 5.94136 4.0525 1.05603 8.09932M18.4486 25.2477C17.7056 25.2477 16.9794 25.468 16.3617 25.8808C15.744 26.2935 15.2625 26.8802 14.9782 27.5666C14.6939 28.2529 14.6195 29.0082 14.7644 29.7369C14.9094 30.4655 15.2671 31.1348 15.7925 31.6602C16.3178 32.1855 16.9871 32.5432 17.7158 32.6882C18.4444 32.8331 19.1997 32.7587 19.8861 32.4744C20.5724 32.1901 21.1591 31.7087 21.5718 31.0909C21.9846 30.4732 22.2049 29.747 22.2049 29.0041C22.2049 28.5108 22.1077 28.0223 21.919 27.5666C21.7302 27.1108 21.4535 26.6967 21.1047 26.3479C20.7559 25.9991 20.3418 25.7224 19.8861 25.5337C19.4303 25.3449 18.9419 25.2477 18.4486 25.2477Z" stroke="black" stroke-width="2" stroke-linecap="round" stroke-linejoin="round"/>
</svg>
